<?xml version="1.0" encoding="UTF-8"?>
<svg width="1078px" height="753px" viewBox="0 0 1078 753" version="1.1" xmlns="http://www.w3.org/2000/svg" xmlns:xlink="http://www.w3.org/1999/xlink">
    <!-- Generator: Sketch 48.1 (47250) - http://www.bohemiancoding.com/sketch -->
    <title>undraw_learning_2q1h</title>
    <desc>Created with Sketch.</desc>
    <defs></defs>
    <g id="Page-1" stroke="none" stroke-width="1" fill="none" fill-rule="evenodd">
        <g id="undraw_learning_2q1h">
            <ellipse id="Oval" fill="#3F3D56" fill-rule="nonzero" cx="455" cy="681.8614" rx="455" ry="23"></ellipse>
            <ellipse id="Oval" fill="#3F3D56" fill-rule="nonzero" cx="899.33839" cy="721" rx="178.04348" ry="9"></ellipse>
            <ellipse id="Oval" fill="#3F3D56" fill-rule="nonzero" cx="396.05573" cy="743.8614" rx="178.04348" ry="9"></ellipse>
            <path d="M833.08175,473.43234 L849.05675,462.32826 L882.16608,419.71036 C884.132271,417.179475 883.674515,413.533877 881.14365,411.56766 C878.612765,409.601469 874.967167,410.059225 873.00095,412.59009 L839.89162,455.20799 L833.08175,473.43234 Z" id="Shape" fill="#2F2E41" fill-rule="nonzero"></path>
            <path d="M975.67819,68.2879 C975.67819,68.2879 955.58725,50.27533 928.5684,84.22209 C901.54955,118.16885 859.2893,134.79583 849.59023,147.95886 C849.59023,147.95886 889.7721,131.33186 903.62792,124.40397 C917.48374,117.47608 916.79092,118.86164 916.79092,118.86164 C916.79092,118.86164 898.0856,132.0247 894.62164,145.1877 C891.15768,158.3507 893.92885,169.43538 887.69373,182.59841 C881.45861,195.76144 1006.85373,191.60469 1006.85373,191.60469 C1006.85373,191.60469 1019.32397,170.12817 1015.86001,147.95886 C1012.39605,125.78955 1014.47448,71.05906 975.67819,68.2879 Z" id="Shape" fill="#2F2E41" fill-rule="nonzero"></path>
            <path d="M936.1891,121.63281 C936.1891,121.63281 941.03864,155.57956 920.25491,163.20026 C899.47118,170.82096 907.09191,181.21283 907.09191,181.21283 L938.2675,196.45423 L971.5215,186.06237 L982.60616,169.43537 C982.60616,169.43537 964.59359,165.27863 969.44316,152.80837 C974.29273,140.33811 975.67828,136.18137 975.67828,136.18137 L936.1891,121.63281 Z" id="Shape" fill="#FFB9B9" fill-rule="nonzero"></path>
            <path d="M936.1891,121.63281 C936.1891,121.63281 941.03864,155.57956 920.25491,163.20026 C899.47118,170.82096 907.09191,181.21283 907.09191,181.21283 L938.2675,196.45423 L971.5215,186.06237 L982.60616,169.43537 C982.60616,169.43537 964.59359,165.27863 969.44316,152.80837 C974.29273,140.33811 975.67828,136.18137 975.67828,136.18137 L936.1891,121.63281 Z" id="Shape" fill="#000000" fill-rule="nonzero" opacity="0.1"></path>
            <path d="M1023.48076,218.62354 C1023.48076,218.62354 1018.63123,282.36031 1020.01676,285.13148 C1021.40229,287.90265 1020.01676,384.20058 1020.01676,384.20058 C1020.01676,384.20058 1029.71583,436.15991 1017.24559,438.93107 C1004.77535,441.70223 1007.54652,380.73663 1007.54652,380.73663 L995.07628,300.37288 L996.46186,220.70188 L1023.48076,218.62354 Z" id="Shape" fill="#FFB9B9" fill-rule="nonzero"></path>
            <path d="M1023.48076,218.62354 C1023.48076,218.62354 1018.63123,282.36031 1020.01676,285.13148 C1021.40229,287.90265 1020.01676,384.20058 1020.01676,384.20058 C1020.01676,384.20058 1029.71583,436.15991 1017.24559,438.93107 C1004.77535,441.70223 1007.54652,380.73663 1007.54652,380.73663 L995.07628,300.37288 L996.46186,220.70188 L1023.48076,218.62354 Z" id="Shape" fill="#000000" fill-rule="nonzero" opacity="0.1"></path>
            <path d="M888.38652,410.52664 C888.38652,410.52664 865.52442,497.12551 866.21721,539.38576 C866.91,581.64601 875.91629,640.53325 875.91629,640.53325 C875.91629,640.53325 877.30187,666.16651 875.22349,668.93768 C873.14511,671.70885 885.61536,683.48629 885.61536,683.48629 L898.77836,675.86559 L903.62789,670.32326 L903.62789,665.4737 C903.62789,665.4737 896.00719,641.91881 902.24231,623.21345 C908.47743,604.50809 911.94139,557.39831 905.70631,542.8497 L948.65931,415.37616 L888.38652,410.52664 Z" id="Shape" fill="#FFB9B9" fill-rule="nonzero"></path>
            <path d="M887.00094,672.40163 C887.00094,672.40163 878.68745,662.00977 873.14512,665.47372 C867.60279,668.93767 858.59651,692.49257 858.59651,692.49257 C858.59651,692.49257 827.42092,722.28257 849.59023,723.66816 C871.75954,725.05375 881.45861,717.43304 884.22978,711.89072 C887.00095,706.3484 912.63421,691.79978 912.63421,691.79978 C912.63421,691.79978 909.86304,665.47372 905.7063,664.78093 C901.54956,664.08814 895.31443,675.17279 895.31443,675.17279 L887.00094,672.40163 Z" id="Shape" fill="#2F2E41" fill-rule="nonzero"></path>
            <path d="M963.90074,416.06897 L963.90074,501.97505 C963.981196,512.398693 964.675187,522.808562 965.97911,533.15064 C968.05748,548.39205 954.20167,662.00977 954.20167,662.00977 L955.58725,682.1007 L972.90702,680.71512 L974.98539,663.39535 L999.92587,587.18835 C999.92587,587.18835 1008.23936,540.77135 1004.08262,523.45158 C999.92588,506.13181 1025.55914,395.28525 1025.55914,395.28525 L963.90074,416.06897 Z" id="Shape" fill="#FFB9B9" fill-rule="nonzero"></path>
            <path d="M950.04494,677.25117 L955.17589,676.13567 C955.17589,676.13567 959.05122,667.55209 963.90076,669.63047 C967.313379,671.204415 970.546411,673.141603 973.54384,675.40847 L975.67821,679.32947 C975.67821,679.32947 980.52774,689.72133 986.76286,696.64924 C992.99798,703.57715 999.92586,718.81856 989.53403,720.20414 C979.1422,721.58972 965.28634,722.28251 961.1296,718.81856 C956.97286,715.35461 959.74401,709.81227 955.58727,708.42669 C951.43053,707.04111 947.96657,702.88436 948.65936,701.49878 C949.35215,700.1132 950.04494,677.25117 950.04494,677.25117 Z" id="Shape" fill="#2F2E41" fill-rule="nonzero"></path>
            <circle id="Oval" fill="#FFB9B9" fill-rule="nonzero" cx="963.90073" cy="114.70489" r="33.25397"></circle>
            <path d="M905.7063,168.74259 L914.85738,165.54774 C914.85738,165.54774 911.24862,171.51374 930.64677,174.97774 C950.04492,178.44174 970.13393,179.66805 979.14117,168.31661 C979.14117,168.31661 982.6061,166.66425 987.45563,171.51379 C992.30516,176.36333 995.07633,174.97779 995.07633,174.97779 L991.61238,192.99036 L984.68447,226.24436 L975.67819,251.18484 L950.04492,245.64251 L922.33328,225.55157 L911.94142,198.5326 L911.94142,173.59213 L905.7063,168.74259 Z" id="Shape" fill="#6C63FF" fill-rule="nonzero"></path>
            <path d="M990.2268,178.4417 L997.15471,173.59216 C997.15471,173.59216 1020.7096,177.7489 1022.09518,188.83356 L1004.08262,223.47311 C1007.75646,233.111591 1007.50775,243.805836 1003.38982,253.26311 C996.46191,269.1973 997.15471,272.66126 997.15471,272.66126 L992.30517,293.44499 L904.32072,300.3729 C904.32072,300.3729 900.85672,292.05941 899.47118,290.67382 C898.08564,289.28823 898.0856,284.4387 899.47118,284.4387 C900.85676,284.4387 899.47118,282.36033 898.0856,280.28196 C896.70002,278.20359 896.00722,277.51079 898.0856,274.73963 C900.16398,271.96847 894.6216,247.02799 894.6216,247.02799 L894.6216,220.00912 L871.06671,188.83353 C871.06671,188.83353 879.3802,176.36329 883.53695,174.97771 C887.6937,173.59213 907.46713,168.12783 907.46713,168.12783 L911.94138,174.71583 L918.17649,224.85862 L927.18278,255.34142 L965.10378,248.89832 L979.83491,224.16583 L989.53399,195.06861 L990.2268,178.4417 Z" id="Shape" fill="#6C63FF" fill-rule="nonzero"></path>
            <path d="M1016.55285,184.67678 L1022.09518,188.83353 C1022.09518,188.83353 1026.94472,227.62982 1025.55918,230.40099 C1024.17364,233.17216 999.92591,235.94332 999.23312,234.55773 C998.54033,233.17214 1016.55285,184.67678 1016.55285,184.67678 Z" id="Shape" fill="#6C63FF" fill-rule="nonzero"></path>
            <path d="M866.21721,226.93703 C866.21721,226.93703 871.06675,290.6738 869.68121,293.44497 C868.29567,296.21614 869.68121,392.51408 869.68121,392.51408 C869.68121,392.51408 859.98213,444.4734 872.45237,447.24456 C884.92261,450.01572 882.15144,389.05012 882.15144,389.05012 L894.62168,308.68637 L893.2361,229.01537 L866.21721,226.93703 Z" id="Shape" fill="#FFB9B9" fill-rule="nonzero"></path>
            <path d="M902.24234,165.27864 L909.17025,211.00284 C909.17025,211.00284 902.93513,278.89636 904.32072,292.75218 L905.7063,296.90892 C905.7063,296.90892 902.93513,295.52334 902.2423,298.2945 C901.54947,301.06566 902.2423,310.07195 902.2423,310.07195 C902.2423,310.07195 898.08556,314.2287 896.69997,337.0908 C895.31438,359.9529 878.68741,414.68339 884.92253,416.7618 C891.15765,418.84021 928.56836,429.23204 948.6593,427.15367 C968.75024,425.0753 1040.8005,400.82761 1040.10771,394.59249 C1039.41492,388.35737 1004.77537,300.37292 1004.77537,300.37292 C1004.77537,300.37292 998.54025,289.98105 998.54025,288.59547 C998.54025,287.20989 1006.85374,281.66756 1004.77537,276.12523 C1002.697,270.5829 991.61237,212.38846 991.61237,212.38846 L999.23307,170.821 L988.8412,168.04984 L981.2205,208.23172 C981.2205,208.23172 951.4305,222.78033 920.2549,209.6173 L913.32699,162.50751 L902.24234,165.27864 Z" id="Shape" fill="#2F2E41" fill-rule="nonzero"></path>
            <path d="M876.60908,186.75516 L871.06675,188.83353 C871.06675,188.83353 860.67488,232.47936 863.44605,232.47936 C866.21722,232.47936 899.47118,236.63611 899.47118,235.25053 C899.47118,233.86495 893.23606,199.91819 893.23606,199.91819 L876.60908,186.75516 Z" id="Shape" fill="#6C63FF" fill-rule="nonzero"></path>
            <path d="M937.57468,85.6077 C937.57468,85.6077 988.84121,120.94004 1002.69703,105.00585 C1016.55285,89.07166 978.44935,75.21585 978.44935,75.21585 L946.58096,71.75185 L937.57468,85.6077 Z" id="Shape" fill="#2F2E41" fill-rule="nonzero"></path>
            <path d="M139.61271,0 L139.61271,676 L720.61271,676 L720.61271,0 L139.61271,0 Z M170.61271,620 C165.089863,620 160.61271,615.522847 160.61271,610 C160.61271,604.477153 165.089863,600 170.61271,600 C176.135557,600 180.61271,604.477153 180.61271,610 C180.61271,615.522847 176.135557,620 170.61271,620 Z M170.61271,571 C165.089863,571 160.61271,566.522847 160.61271,561 C160.61271,555.477153 165.089863,551 170.61271,551 C176.135557,551 180.61271,555.477153 180.61271,561 C180.61271,566.522847 176.135557,571 170.61271,571 Z M170.61271,523 C165.089863,523 160.61271,518.522847 160.61271,513 C160.61271,507.477153 165.089863,503 170.61271,503 C176.135557,503 180.61271,507.477153 180.61271,513 C180.61271,518.522847 176.135557,523 170.61271,523 Z M170.61271,474 C165.089863,474 160.61271,469.522847 160.61271,464 C160.61271,458.477153 165.089863,454 170.61271,454 C176.135557,454 180.61271,458.477153 180.61271,464 C180.61271,469.522847 176.135557,474 170.61271,474 Z M170.61271,425 C165.089863,425 160.61271,420.522847 160.61271,415 C160.61271,409.477153 165.089863,405 170.61271,405 C176.135557,405 180.61271,409.477153 180.61271,415 C180.61271,420.522847 176.135557,425 170.61271,425 Z M170.61271,377 C165.089863,377 160.61271,372.522847 160.61271,367 C160.61271,361.477153 165.089863,357 170.61271,357 C176.135557,357 180.61271,361.477153 180.61271,367 C180.61271,372.522847 176.135557,377 170.61271,377 Z M170.61271,328 C165.089863,328 160.61271,323.522847 160.61271,318 C160.61271,312.477153 165.089863,308 170.61271,308 C176.135557,308 180.61271,312.477153 180.61271,318 C180.61271,323.522847 176.135557,328 170.61271,328 Z M170.61271,279 C165.089863,279 160.61271,274.522847 160.61271,269 C160.61271,263.477153 165.089863,259 170.61271,259 C176.135557,259 180.61271,263.477153 180.61271,269 C180.61271,274.522847 176.135557,279 170.61271,279 Z M170.61271,231 C165.089863,231 160.61271,226.522847 160.61271,221 C160.61271,215.477153 165.089863,211 170.61271,211 C176.135557,211 180.61271,215.477153 180.61271,221 C180.61271,226.522847 176.135557,231 170.61271,231 Z M170.61271,182 C165.089863,182 160.61271,177.522847 160.61271,172 C160.61271,166.477153 165.089863,162 170.61271,162 C176.135557,162 180.61271,166.477153 180.61271,172 C180.61271,177.522847 176.135557,182 170.61271,182 Z M170.61271,133 C165.089863,133 160.61271,128.522847 160.61271,123 C160.61271,117.477153 165.089863,113 170.61271,113 C176.135557,113 180.61271,117.477153 180.61271,123 C180.61271,128.522847 176.135557,133 170.61271,133 Z M170.61271,86 C165.089863,86 160.61271,81.5228475 160.61271,76 C160.61271,70.4771525 165.089863,66 170.61271,66 C176.135557,66 180.61271,70.4771525 180.61271,76 C180.61271,81.5228475 176.135557,86 170.61271,86 Z" id="Shape" fill="#F2F2F2" fill-rule="nonzero"></path>
            <polygon id="Shape" fill="#3F3D56" fill-rule="nonzero" opacity="0.3" points="720.613 51.338 720.613 49.338 208.369 49.338 208.369 0 206.369 0 206.369 49.338 139.613 49.338 139.613 51.338 206.369 51.338 206.369 98 139.613 98 139.613 100 206.369 100 206.369 146.662 139.613 146.662 139.613 148.662 206.369 148.662 206.369 195.323 139.613 195.323 139.613 197.323 206.369 197.323 206.369 243.984 139.613 243.984 139.613 245.984 206.369 245.984 206.369 292.646 139.613 292.646 139.613 294.646 206.369 294.646 206.369 341.307 139.613 341.307 139.613 343.307 206.369 343.307 206.369 389.969 139.613 389.969 139.613 391.969 206.369 391.969 206.369 438.63 139.613 438.63 139.613 440.63 206.369 440.63 206.369 487.291 139.613 487.291 139.613 489.291 206.369 489.291 206.369 535.953 139.613 535.953 139.613 537.953 206.369 537.953 206.369 584.614 139.613 584.614 139.613 586.614 206.369 586.614 206.369 633.275 139.613 633.275 139.613 635.275 206.369 635.275 206.369 676 208.369 676 208.369 635.275 720.613 635.275 720.613 633.275 208.369 633.275 208.369 586.614 720.613 586.614 720.613 584.614 208.369 584.614 208.369 537.953 720.613 537.953 720.613 535.953 208.369 535.953 208.369 489.291 720.613 489.291 720.613 487.291 208.369 487.291 208.369 440.63 720.613 440.63 720.613 438.63 208.369 438.63 208.369 391.969 720.613 391.969 720.613 389.969 208.369 389.969 208.369 343.307 720.613 343.307 720.613 341.307 208.369 341.307 208.369 294.646 720.613 294.646 720.613 292.646 208.369 292.646 208.369 245.984 720.613 245.984 720.613 243.984 208.369 243.984 208.369 197.323 720.613 197.323 720.613 195.323 208.369 195.323 208.369 148.662 720.613 148.662 720.613 146.662 208.369 146.662 208.369 100 720.613 100 720.613 98 208.369 98 208.369 51.338"></polygon>
            <path d="M269.39894,173.17882 C263.357296,177.858565 256.866195,181.927258 250.02104,185.3251 C245.5973,187.52055 240.68904,189.47475 235.83704,188.55395 C230.98504,187.63315 226.62847,182.67487 228.11009,177.96379 C229.15588,175.164747 231.614054,173.135145 234.56044,172.63803 C237.473177,172.189566 240.453482,172.619595 243.12063,173.87318 C248.004428,175.965408 252.080135,179.581738 254.73875,184.18181 C256.09445,186.54266 257.15694,189.24987 259.40802,190.78093 C261.222007,191.811136 263.253389,192.399006 265.33721,192.4968 C270.24106,193.1098 275.27321,193.71669 280.07737,192.5574 C284.88153,191.39811 289.48425,188.07428 290.7097,183.28661" id="Shape" stroke="#3F3D56" stroke-width="2"></path>
            <path d="M306.46306,150.36394 C306.84286,165.051353 306.637393,179.738353 305.84666,194.42494 L316.26866,192.45582 C320.11024,191.72999 324.48083,190.62122 326.21687,187.11826 C327.83542,183.85237 326.29503,179.72969 323.60038,177.27519 C320.90573,174.82069 317.31512,173.64933 313.84178,172.54404 L308.15222,170.73352" id="Shape" stroke="#3F3D56" stroke-width="2"></path>
            <path d="M362.63679,166.55617 C358.83158,166.02874 354.94937,165.52406 351.16803,166.20177 C347.38669,166.87948 343.65594,168.93816 341.91259,172.36139 C338.69248,178.68439 343.62602,186.47083 349.87808,189.82655 C355.082221,192.597674 361.079236,193.500465 366.86857,192.3843" id="Shape" stroke="#3F3D56" stroke-width="2"></path>
            <path d="M278.96688,116.2517 C269.397427,125.249387 259.82798,125.249387 250.25854,116.2517 C242.412651,108.72225 238.018696,98.2907718 238.11271,87.41687 L238.11271,0 L291.11271,0 L291.11271,87.41691 C291.206713,98.2907979 286.812758,108.72226 278.96688,116.2517 Z" id="Shape" fill="#6C63FF" fill-rule="nonzero"></path>
            <path d="M575.31272,426.72998 C575.31272,508.55998 526.67272,537.12998 466.66272,537.12998 C465.27272,537.12998 463.88272,537.10998 462.50272,537.07998 C459.72272,537.01998 456.96272,536.89004 454.24272,536.69998 C400.08272,532.86998 358.01272,502.82998 358.01272,426.72998 C358.01272,347.98998 458.63272,248.61998 466.21272,241.24998 C466.212665,241.247311 466.213701,241.244736 466.215588,241.242848 C466.217476,241.240961 466.220051,241.239925 466.22272,241.23998 C466.51272,240.94998 466.66272,240.80998 466.66272,240.80998 C466.66272,240.80998 575.31272,344.90997 575.31272,426.72998 Z" id="Shape" fill="#6C63FF" fill-rule="nonzero"></path>
            <path d="M462.70274,524.60999 L502.44274,469.08999 L462.60274,530.70999 L462.50274,537.07999 C459.72274,537.01999 456.96274,536.89005 454.24274,536.69999 L458.52274,454.83999 L458.49274,454.19999 L458.56274,454.08999 L458.97274,446.34999 L419.0328,384.57999 L459.09274,440.54999 L459.19274,442.18999 L462.42274,380.33999 L428.23274,316.50999 L462.84274,369.48999 L466.21274,241.24999 L466.22274,240.80999 L466.22274,241.23999 L465.66274,342.35999 L499.70274,302.26999 L465.52268,351.07004 L464.62268,406.45004 L496.41268,353.30004 L464.49268,414.60004 L463.99268,445.39004 L510.12268,371.40999 L463.81268,456.12999 L462.70274,524.60999 Z" id="Shape" fill="#3F3D56" fill-rule="nonzero"></path>
        </g>
    </g>
</svg>