<?xml version="1.0" encoding="UTF-8"?>
<svg width="57px" height="31px" viewBox="0 0 57 31" version="1.1" xmlns="http://www.w3.org/2000/svg" xmlns:xlink="http://www.w3.org/1999/xlink">
    <!-- Generator: Sketch 48.1 (47250) - http://www.bohemiancoding.com/sketch -->
    <title>Autobus Copy</title>
    <desc>Created with Sketch.</desc>
    <defs></defs>
    <g id="Page-1" stroke="none" stroke-width="1" fill="none" fill-rule="evenodd" opacity="0.80151721">
        <g id="London" transform="translate(-865.000000, -793.000000)" fill-rule="nonzero">
            <g id="Autobus-Copy" opacity="0.7" transform="translate(865.000000, 793.000000)">
                <path d="M52.2456221,0.466371681 L5.7,0.466371681 C2.83686636,0.466371681 0.499078341,2.88053097 0.499078341,5.89823009 L0.499078341,9.27256637 L0.499078341,26.9946903 L54.7147465,26.9946903 L54.7147465,16.1858407 C54.7147465,11.5769912 54.5571429,6.96814159 54.2419355,2.38672566 C54.1631336,1.31681416 53.2963134,0.466371681 52.2456221,0.466371681 Z" id="Shape"></path>
                <path d="M54.7147465,27.4884956 L0.499078341,27.4884956 C0.23640553,27.4884956 0.0525345622,27.2690265 0.0525345622,27.0221239 L0.0525345622,5.92566372 C0.0525345622,2.66106195 2.57419355,0.0274336283 5.7,0.0274336283 L52.2718894,0.0274336283 C53.5327189,0.0274336283 54.6096774,1.0699115 54.6884793,2.38672566 C55.0036866,6.96814159 55.1612903,11.6318584 55.1612903,16.2132743 L55.1612903,27.0221239 C55.1612903,27.2690265 54.9511521,27.4884956 54.7147465,27.4884956 Z M0.971889401,26.5283186 L54.2682028,26.5283186 L54.2682028,16.1858407 C54.2682028,11.6044248 54.1105991,6.96814159 53.7953917,2.41415929 C53.7428571,1.59115044 53.0861751,0.932743363 52.2718894,0.932743363 L5.7,0.932743363 C3.09953917,0.932743363 0.971889401,3.15486726 0.971889401,5.87079646 L0.971889401,26.5283186 Z" id="Shape" fill="#61616B"></path>
                <rect id="Rectangle-path" x="0.499078341" y="9.27256637" width="54.2156682" height="1.8380531"></rect>
                <path d="M54.7147465,11.6044248 L0.499078341,11.6044248 C0.23640553,11.6044248 0.0525345622,11.3849558 0.0525345622,11.1380531 L0.0525345622,9.3 C0.0525345622,9.02566372 0.262672811,8.83362832 0.499078341,8.83362832 L54.7147465,8.83362832 C54.9774194,8.83362832 55.1612903,9.05309735 55.1612903,9.3 L55.1612903,11.1380531 C55.1612903,11.3849558 54.9511521,11.6044248 54.7147465,11.6044248 Z M0.971889401,10.6442478 L54.2682028,10.6442478 L54.2682028,9.76637168 L0.971889401,9.76637168 L0.971889401,10.6442478 Z" id="Shape" fill="#61616B"></path>
                <rect id="Rectangle-path" x="46.8082949" y="13.7442478" width="7.90645161" height="5.95309735"></rect>
                <path d="M54.7147465,20.1911504 L46.8082949,20.1911504 C46.5456221,20.1911504 46.3617512,19.9716814 46.3617512,19.7247788 L46.3617512,13.7716814 C46.3617512,13.4973451 46.5718894,13.3053097 46.8082949,13.3053097 L54.7147465,13.3053097 C54.9774194,13.3053097 55.1612903,13.5247788 55.1612903,13.7716814 L55.1612903,19.7247788 C55.1612903,19.9716814 54.9511521,20.1911504 54.7147465,20.1911504 Z M47.2548387,19.2309735 L54.2419355,19.2309735 L54.2419355,14.2380531 L47.2548387,14.2380531 L47.2548387,19.2309735 Z" id="Shape" fill="#61616B"></path>
                <ellipse id="Oval" fill="#61616B" cx="46.8082949" cy="26.0070796" rx="4.12396313" ry="4.30707965"></ellipse>
                <path d="M46.8082949,30.780531 C44.2866359,30.780531 42.237788,28.640708 42.237788,26.0070796 C42.237788,23.3734513 44.2866359,21.2336283 46.8082949,21.2336283 C49.3299539,21.2336283 51.3788018,23.3734513 51.3788018,26.0070796 C51.3788018,28.640708 49.3299539,30.780531 46.8082949,30.780531 Z M46.8082949,22.1663717 C44.7857143,22.1663717 43.1571429,23.8946903 43.1571429,25.979646 C43.1571429,28.0920354 44.8119816,29.7929204 46.8082949,29.7929204 C48.8308756,29.7929204 50.459447,28.0646018 50.459447,25.979646 C50.459447,23.8946903 48.8046083,22.1663717 46.8082949,22.1663717 Z" id="Shape" fill="#61616B"></path>
                <ellipse id="Oval" fill="#FFFFFF" cx="46.8082949" cy="26.0070796" rx="2.67926267" ry="2.79823009"></ellipse>
                <path d="M46.8082949,29.2716814 C45.0746544,29.2716814 43.6824885,27.7902655 43.6824885,26.0070796 C43.6824885,24.1964602 45.1009217,22.7424779 46.8082949,22.7424779 C48.5419355,22.7424779 49.9341014,24.2238938 49.9341014,26.0070796 C49.9341014,27.7902655 48.5156682,29.2716814 46.8082949,29.2716814 Z M46.8082949,23.6752212 C45.5737327,23.6752212 44.6018433,24.7176991 44.6018433,25.979646 C44.6018433,27.2415929 45.6,28.2840708 46.8082949,28.2840708 C48.0165899,28.2840708 49.0147465,27.2415929 49.0147465,25.979646 C49.0147465,24.7176991 48.0165899,23.6752212 46.8082949,23.6752212 Z" id="Shape" fill="#61616B"></path>
                <ellipse id="Oval" fill="#61616B" cx="17.5990783" cy="26.0070796" rx="4.12396313" ry="4.30707965"></ellipse>
                <path d="M17.5990783,30.780531 C15.0774194,30.780531 13.0285714,28.640708 13.0285714,26.0070796 C13.0285714,23.3734513 15.0774194,21.2336283 17.5990783,21.2336283 C20.1207373,21.2336283 22.1695853,23.3734513 22.1695853,26.0070796 C22.1695853,28.640708 20.1207373,30.780531 17.5990783,30.780531 Z M17.5990783,22.1663717 C15.5764977,22.1663717 13.9479263,23.8946903 13.9479263,25.979646 C13.9479263,28.0920354 15.602765,29.7929204 17.5990783,29.7929204 C19.5953917,29.7929204 21.2502304,28.0646018 21.2502304,25.979646 C21.2502304,23.8946903 19.5953917,22.1663717 17.5990783,22.1663717 Z" id="Shape" fill="#61616B"></path>
                <ellipse id="Oval" fill="#FFFFFF" cx="17.5990783" cy="26.0070796" rx="2.67926267" ry="2.79823009"></ellipse>
                <path d="M17.5990783,29.2716814 C15.8654378,29.2716814 14.4732719,27.7902655 14.4732719,26.0070796 C14.4732719,24.1964602 15.8917051,22.7424779 17.5990783,22.7424779 C19.3327189,22.7424779 20.7248848,24.2238938 20.7248848,26.0070796 C20.7248848,27.7902655 19.3064516,29.2716814 17.5990783,29.2716814 Z M17.5990783,23.6752212 C16.3645161,23.6752212 15.3926267,24.7176991 15.3926267,25.979646 C15.3926267,27.2415929 16.3907834,28.2840708 17.5990783,28.2840708 C18.8073733,28.2840708 19.80553,27.2415929 19.80553,25.979646 C19.80553,24.7176991 18.8073733,23.6752212 17.5990783,23.6752212 Z" id="Shape" fill="#61616B"></path>
                <path d="M12.5032258,7.37964602 L3.44101382,7.37964602 L3.44101382,5.10265487 C3.44101382,3.78584071 4.46543779,2.7159292 5.72626728,2.7159292 L12.4769585,2.7159292 L12.4769585,7.37964602 L12.5032258,7.37964602 Z" id="Shape"></path>
                <path d="M12.5032258,7.8460177 L3.44101382,7.8460177 C3.17834101,7.8460177 2.99447005,7.62654867 2.99447005,7.37964602 L2.99447005,5.10265487 C2.99447005,3.51150442 4.22903226,2.22212389 5.75253456,2.22212389 L12.5032258,2.22212389 C12.7658986,2.22212389 12.9497696,2.44159292 12.9497696,2.68849558 L12.9497696,7.35221239 C12.9497696,7.62654867 12.7658986,7.8460177 12.5032258,7.8460177 Z M3.91382488,6.88584071 L12.056682,6.88584071 L12.056682,3.15486726 L5.75253456,3.15486726 C4.7281106,3.15486726 3.91382488,4.00530973 3.91382488,5.07522124 L3.91382488,6.88584071 Z" id="Shape" fill="#61616B"></path>
                <rect id="Rectangle-path" x="15.2087558" y="2.68849558" width="7.11843318" height="4.66371681"></rect>
                <path d="M22.3271889,7.8460177 L15.2087558,7.8460177 C14.9460829,7.8460177 14.762212,7.62654867 14.762212,7.37964602 L14.762212,2.7159292 C14.762212,2.44159292 14.9723502,2.24955752 15.2087558,2.24955752 L22.3271889,2.24955752 C22.5898618,2.24955752 22.7737327,2.46902655 22.7737327,2.7159292 L22.7737327,7.37964602 C22.8,7.62654867 22.5898618,7.8460177 22.3271889,7.8460177 Z M15.6815668,6.88584071 L21.8806452,6.88584071 L21.8806452,3.15486726 L15.6815668,3.15486726 L15.6815668,6.88584071 Z" id="Shape" fill="#61616B"></path>
                <rect id="Rectangle-path" x="25.0327189" y="2.68849558" width="7.11843318" height="4.66371681"></rect>
                <path d="M32.1511521,7.8460177 L25.0327189,7.8460177 C24.7700461,7.8460177 24.5861751,7.62654867 24.5861751,7.37964602 L24.5861751,2.7159292 C24.5861751,2.44159292 24.7963134,2.24955752 25.0327189,2.24955752 L32.1511521,2.24955752 C32.4138249,2.24955752 32.5976959,2.46902655 32.5976959,2.7159292 L32.5976959,7.37964602 C32.5976959,7.62654867 32.4138249,7.8460177 32.1511521,7.8460177 Z M25.4792627,6.88584071 L31.678341,6.88584071 L31.678341,3.15486726 L25.4792627,3.15486726 L25.4792627,6.88584071 Z" id="Shape" fill="#61616B"></path>
                <rect id="Rectangle-path" x="34.8304147" y="2.68849558" width="7.11843318" height="4.66371681"></rect>
                <path d="M41.9488479,7.8460177 L34.8304147,7.8460177 C34.5677419,7.8460177 34.383871,7.62654867 34.383871,7.37964602 L34.383871,2.7159292 C34.383871,2.44159292 34.5940092,2.24955752 34.8304147,2.24955752 L41.9488479,2.24955752 C42.2115207,2.24955752 42.3953917,2.46902655 42.3953917,2.7159292 L42.3953917,7.37964602 C42.421659,7.62654867 42.2115207,7.8460177 41.9488479,7.8460177 Z M35.3032258,6.88584071 L41.5023041,6.88584071 L41.5023041,3.15486726 L35.3032258,3.15486726 L35.3032258,6.88584071 Z" id="Shape" fill="#61616B"></path>
                <rect id="Rectangle-path" x="44.6543779" y="2.68849558" width="7.11843318" height="4.66371681"></rect>
                <path d="M51.7728111,7.8460177 L44.6543779,7.8460177 C44.3917051,7.8460177 44.2078341,7.62654867 44.2078341,7.37964602 L44.2078341,2.7159292 C44.2078341,2.44159292 44.4179724,2.24955752 44.6543779,2.24955752 L51.7728111,2.24955752 C52.0354839,2.24955752 52.2193548,2.46902655 52.2193548,2.7159292 L52.2193548,7.37964602 C52.2193548,7.62654867 52.0354839,7.8460177 51.7728111,7.8460177 Z M45.1009217,6.88584071 L51.3,6.88584071 L51.3,3.15486726 L45.1009217,3.15486726 L45.1009217,6.88584071 Z" id="Shape" fill="#61616B"></path>
                <g id="Group" transform="translate(11.820276, 13.442478)">
                    <rect id="Rectangle-path" x="8.87834101" y="0.16460177" width="6.56682028" height="4.08761062"></rect>
                    <rect id="Rectangle-path" x="0.183870968" y="0.16460177" width="6.64562212" height="4.08761062"></rect>
                    <rect id="Rectangle-path" x="17.5990783" y="0.16460177" width="6.64562212" height="4.08761062"></rect>
                    <rect id="Rectangle-path" x="26.3723502" y="0.16460177" width="6.64562212" height="4.08761062"></rect>
                </g>
                <g id="Group" transform="translate(11.557604, 12.893805)" fill="#61616B">
                    <path d="M15.7078341,5.26725664 L9.14101382,5.26725664 C8.87834101,5.26725664 8.69447005,5.04778761 8.69447005,4.80088496 L8.69447005,0.713274336 C8.69447005,0.438938053 8.90460829,0.246902655 9.14101382,0.246902655 L15.7078341,0.246902655 C15.9705069,0.246902655 16.1543779,0.466371681 16.1543779,0.713274336 L16.1543779,4.80088496 C16.1806452,5.04778761 15.9705069,5.26725664 15.7078341,5.26725664 Z M9.61382488,4.30707965 L15.2612903,4.30707965 L15.2612903,1.17964602 L9.61382488,1.17964602 L9.61382488,4.30707965 Z" id="Shape"></path>
                    <path d="M7.0921659,5.26725664 L0.446543779,5.26725664 C0.183870968,5.26725664 0,5.04778761 0,4.80088496 L0,0.713274336 C0,0.438938053 0.210138249,0.246902655 0.446543779,0.246902655 L7.0921659,0.246902655 C7.35483871,0.246902655 7.53870968,0.466371681 7.53870968,0.713274336 L7.53870968,4.80088496 C7.53870968,5.04778761 7.35483871,5.26725664 7.0921659,5.26725664 Z M0.893087558,4.30707965 L6.61935484,4.30707965 L6.61935484,1.17964602 L0.893087558,1.17964602 L0.893087558,4.30707965 Z" id="Shape"></path>
                    <path d="M24.5073733,5.26725664 L17.8617512,5.26725664 C17.5990783,5.26725664 17.4152074,5.04778761 17.4152074,4.80088496 L17.4152074,0.713274336 C17.4152074,0.438938053 17.6253456,0.246902655 17.8617512,0.246902655 L24.5073733,0.246902655 C24.7700461,0.246902655 24.9539171,0.466371681 24.9539171,0.713274336 L24.9539171,4.80088496 C24.9539171,5.04778761 24.7437788,5.26725664 24.5073733,5.26725664 Z M18.3082949,4.30707965 L24.0345622,4.30707965 L24.0345622,1.17964602 L18.3082949,1.17964602 L18.3082949,4.30707965 Z" id="Shape"></path>
                    <path d="M33.2806452,5.26725664 L26.635023,5.26725664 C26.3723502,5.26725664 26.1884793,5.04778761 26.1884793,4.80088496 L26.1884793,0.713274336 C26.1884793,0.438938053 26.3986175,0.246902655 26.635023,0.246902655 L33.2806452,0.246902655 C33.543318,0.246902655 33.7271889,0.466371681 33.7271889,0.713274336 L33.7271889,4.80088496 C33.7534562,5.04778761 33.543318,5.26725664 33.2806452,5.26725664 Z M27.1078341,4.30707965 L32.8341014,4.30707965 L32.8341014,1.17964602 L27.1078341,1.17964602 L27.1078341,4.30707965 Z" id="Shape"></path>
                </g>
                <rect id="Rectangle-path" x="2.39032258" y="13.0035398" width="7.24976959" height="12.3725664"></rect>
                <path d="M9.66635945,25.8424779 L2.41658986,25.8424779 C2.15391705,25.8424779 1.97004608,25.6230088 1.97004608,25.3761062 L1.97004608,13.0035398 C1.97004608,12.7292035 2.18018433,12.5371681 2.41658986,12.5371681 L9.66635945,12.5371681 C9.92903226,12.5371681 10.1129032,12.7566372 10.1129032,13.0035398 L10.1129032,25.3761062 C10.1129032,25.6230088 9.90276498,25.8424779 9.66635945,25.8424779 Z M2.86313364,24.8823009 L9.19354839,24.8823009 L9.19354839,13.4699115 L2.86313364,13.4699115 L2.86313364,24.8823009 Z" id="Shape" fill="#61616B"></path>
                <path d="M56.4746544,24.9920354 L54.7147465,24.9920354 C54.4520737,24.9920354 54.2682028,24.7725664 54.2682028,24.5256637 L54.2682028,20.5752212 C54.2682028,20.300885 54.478341,20.1088496 54.7147465,20.1088496 L56.4746544,20.1088496 C56.7373272,20.1088496 56.9211982,20.3283186 56.9211982,20.5752212 L56.9211982,24.4982301 C56.9211982,24.7725664 56.7110599,24.9920354 56.4746544,24.9920354 Z M55.1612903,24.0318584 L56.0018433,24.0318584 L56.0018433,21.0690265 L55.1612903,21.0690265 L55.1612903,24.0318584 Z" id="Shape" fill="#61616B"></path>
                <path d="M56.4746544,18.1610619 C56.2119816,18.1610619 56.0281106,17.9415929 56.0281106,17.6946903 L56.0281106,13.4973451 L54.7147465,13.4973451 C54.4520737,13.4973451 54.2682028,13.2778761 54.2682028,13.0309735 C54.2682028,12.7840708 54.478341,12.5646018 54.7147465,12.5646018 L56.4746544,12.5646018 C56.7373272,12.5646018 56.9211982,12.7840708 56.9211982,13.0309735 L56.9211982,17.7221239 C56.9211982,17.9415929 56.7110599,18.1610619 56.4746544,18.1610619 Z" id="Shape" fill="#61616B"></path>
                <path d="M42.2903226,23.0168142 L22.2221198,23.0168142 C21.959447,23.0168142 21.775576,22.7973451 21.775576,22.5504425 C21.775576,22.2761062 21.9857143,22.0840708 22.2221198,22.0840708 L42.2903226,22.0840708 C42.5529954,22.0840708 42.7368664,22.3035398 42.7368664,22.5504425 C42.7631336,22.7973451 42.5529954,23.0168142 42.2903226,23.0168142 Z" id="Shape" fill="#61616B"></path>
                <path d="M13.3437788,23.0168142 L11.216129,23.0168142 C10.9534562,23.0168142 10.7695853,22.7973451 10.7695853,22.5504425 C10.7695853,22.2761062 10.9797235,22.0840708 11.216129,22.0840708 L13.3437788,22.0840708 C13.6064516,22.0840708 13.7903226,22.3035398 13.7903226,22.5504425 C13.7903226,22.7973451 13.5801843,23.0168142 13.3437788,23.0168142 Z" id="Shape" fill="#61616B"></path>
                <path d="M54.7147465,23.0168142 L51.3788018,23.0168142 C51.116129,23.0168142 50.9322581,22.7973451 50.9322581,22.5504425 C50.9322581,22.2761062 51.1423963,22.0840708 51.3788018,22.0840708 L54.7147465,22.0840708 C54.9774194,22.0840708 55.1612903,22.3035398 55.1612903,22.5504425 C55.1612903,22.7973451 54.9511521,23.0168142 54.7147465,23.0168142 Z" id="Shape" fill="#61616B"></path>
                <path d="M9.66635945,23.6752212 L2.41658986,23.6752212 C2.15391705,23.6752212 1.97004608,23.4557522 1.97004608,23.2088496 C1.97004608,22.9345133 2.18018433,22.7424779 2.41658986,22.7424779 L9.66635945,22.7424779 C9.92903226,22.7424779 10.1129032,22.9619469 10.1129032,23.2088496 C10.1129032,23.4557522 9.90276498,23.6752212 9.66635945,23.6752212 Z" id="Shape" fill="#61616B"></path>
                <path d="M6.04147465,25.8424779 C5.77880184,25.8424779 5.59493088,25.6230088 5.59493088,25.3761062 L5.59493088,13.0035398 C5.59493088,12.7292035 5.80506912,12.5371681 6.04147465,12.5371681 C6.30414747,12.5371681 6.48801843,12.7566372 6.48801843,13.0035398 L6.48801843,25.3761062 C6.48801843,25.6230088 6.27788018,25.8424779 6.04147465,25.8424779 Z" id="Shape" fill="#61616B"></path>
            </g>
        </g>
    </g>
</svg>