<?xml version="1.0" encoding="UTF-8"?>
<svg width="228px" height="228px" viewBox="0 0 228 228" version="1.1" xmlns="http://www.w3.org/2000/svg" xmlns:xlink="http://www.w3.org/1999/xlink">
    <!-- Generator: Sketch 48.1 (47250) - http://www.bohemiancoding.com/sketch -->
    <title>Dominiczka</title>
    <desc>Created with Sketch.</desc>
    <defs></defs>
    <g id="Page-1" stroke="none" stroke-width="1" fill="none" fill-rule="evenodd">
        <g id="undraw_team_ih79" transform="translate(-1026.000000, -589.000000)" fill-rule="nonzero">
            <g id="Dominiczka" transform="translate(1026.000000, 589.000000)">
                <circle id="Oval" fill="#F5F5F5" cx="113.72" cy="113.63" r="113.44"></circle>
                <path d="M176.47,123.83 C176.47,165.61 149.21,212.12 115.58,212.12 C81.95,212.12 54.72,165.61 54.72,123.83 C54.72,82.05 81.98,60.83 115.61,60.83 C149.24,60.83 176.47,82.06 176.47,123.83 Z" id="Shape" fill="#FDD835"></path>
                <path d="M114.04,227.42 C136.207739,227.456473 157.895803,220.966748 176.4,208.76 C172.22,185.92 156.31,184.61 156.31,184.61 L68.6,184.61 C68.6,184.61 53.6,185.84 48.9,206.86 C67.9700645,220.273899 90.7247959,227.455926 114.04,227.42 Z" id="Shape" fill="#6C63FF"></path>
                <path d="M95.18,156.74 L130.27,156.74 L130.27,184.81 C130.27,194.497075 122.417075,202.35 112.73,202.35 C103.042925,202.35 95.19,194.497075 95.19,184.81 L95.19,156.74 L95.18,156.74 Z" id="Shape" fill="#000000" opacity="0.1"></path>
                <path d="M98.53,155.44 L126.92,155.44 C128.770154,155.44 130.27,156.939846 130.27,158.79 L130.27,183.51 C130.27,193.197075 122.417075,201.05 112.73,201.05 C103.042925,201.05 95.19,193.197075 95.19,183.51 L95.19,158.79 C95.1899918,156.943744 96.6837525,155.445511 98.53,155.44 Z" id="Shape" fill="#FDB797"></path>
                <path d="M95.25,169.99 C106.558691,174.216642 119.007402,174.252118 130.34,170.09 L130.34,165.78 L95.25,165.78 L95.25,169.99 Z" id="Shape" fill="#000000" opacity="0.1"></path>
                <circle id="Oval" fill="#FDB797" cx="112.85" cy="122.05" r="50.29"></circle>
                <ellipse id="Oval" fill="#FDB797" cx="63.6" cy="119.9" rx="4.68" ry="8.77"></ellipse>
                <ellipse id="Oval" fill="#FDB797" cx="161.84" cy="119.9" rx="4.68" ry="8.77"></ellipse>
                <path d="M68.29,94.77 C68.29,94.77 96.72,133.68 161.92,120.39 C161.92,120.39 169.2,111.53 151.48,84.33 C133.76,57.13 84.42,61.56 68.29,94.77 Z" id="Shape" fill="#000000" opacity="0.1"></path>
                <path d="M68.29,94.14 C68.29,94.14 96.72,133.05 161.92,119.76 C161.92,119.76 169.2,110.9 151.48,83.7 C133.76,56.5 84.42,60.93 68.29,94.14 Z" id="Shape" fill="#FDD835"></path>
            </g>
        </g>
    </g>
</svg>