<?xml version="1.0" encoding="UTF-8"?>
<svg width="228px" height="228px" viewBox="0 0 228 228" version="1.1" xmlns="http://www.w3.org/2000/svg" xmlns:xlink="http://www.w3.org/1999/xlink">
    <!-- Generator: Sketch 48.1 (47250) - http://www.bohemiancoding.com/sketch -->
    <title>Gosia</title>
    <desc>Created with Sketch.</desc>
    <defs></defs>
    <g id="Page-1" stroke="none" stroke-width="1" fill="none" fill-rule="evenodd">
        <g id="undraw_team_ih79" transform="translate(-1026.000000, -282.000000)" fill-rule="nonzero">
            <g id="Gosia" transform="translate(1026.000000, 282.000000)">
                <circle id="Oval" fill="#F5F5F5" cx="114.3" cy="113.58" r="113.44"></circle>
                <path d="M114.4,227.47 C136.554122,227.49862 158.227168,221.009226 176.72,208.81 C172.54,185.97 156.63,184.66 156.63,184.66 L68.95,184.66 C68.95,184.66 53.95,185.89 49.25,206.91 C68.3228544,220.325868 91.0813842,227.507992 114.4,227.47 Z" id="Shape" fill="#6C63FF"></path>
                <circle id="Oval" fill="#F55F44" cx="113.2" cy="111.19" r="54.76"></circle>
                <path d="M95.53,156.8 L130.62,156.8 L130.62,184.87 C130.62,194.557075 122.767075,202.41 113.08,202.41 C103.392925,202.41 95.54,194.557075 95.54,184.87 L95.54,156.8 L95.53,156.8 Z" id="Shape" fill="#000000" opacity="0.1"></path>
                <path d="M98.88,155.5 L127.27,155.5 C128.158475,155.5 129.010561,155.852945 129.638808,156.481192 C130.267055,157.109439 130.62,157.961525 130.62,158.85 L130.62,183.57 C130.62,188.221897 128.772041,192.683265 125.482653,195.972653 C122.193265,199.262041 117.731897,201.11 113.08,201.11 C108.428103,201.11 103.966735,199.262041 100.677347,195.972653 C97.387959,192.683265 95.54,188.221897 95.54,183.57 L95.54,158.85 C95.54,156.999846 97.0398461,155.5 98.89,155.5 L98.88,155.5 Z" id="Shape" fill="#FDA57D"></path>
                <path d="M95.6,170.05 C106.908691,174.276642 119.357402,174.312118 130.69,170.15 L130.69,165.84 L95.6,165.84 L95.6,170.05 Z" id="Shape" fill="#000000" opacity="0.1"></path>
                <circle id="Oval" fill="#FDA57D" cx="113.2" cy="122.11" r="50.29"></circle>
                <circle id="Oval" fill="#F55F44" cx="113.13" cy="55.49" r="20.24"></circle>
                <circle id="Oval" fill="#F55F44" cx="113.13" cy="35.56" r="13.29"></circle>
                <path d="M104.35,66.59 C94.4859442,62.165355 89.8405423,50.7698099 93.8,40.71 C93.66,40.99 93.52,41.28 93.39,41.57 C90.4300545,48.1686955 91.2153142,55.8452537 95.4499793,61.7079894 C99.6846445,67.5707251 106.725369,70.7289493 113.91998,69.9929895 C121.11459,69.2570296 127.370055,64.7386956 130.33,58.14 C130.46,57.85 130.58,57.56 130.7,57.26 C125.81939,66.9097489 114.215424,71.0184778 104.35,66.59 Z" id="Shape" fill="#F55F44"></path>
                <path d="M77.39,76.37 C77.39,76.37 98.58,119.37 158.39,94.37 L144.47,72.54 L119.8,63.68 L77.39,76.37 Z" id="Shape" fill="#000000" opacity="0.1"></path>
                <path d="M77.39,75.73 C77.39,75.73 98.58,118.73 158.39,93.73 L144.47,71.9 L119.8,63.04 L77.39,75.73 Z" id="Shape" fill="#F55F44"></path>
                <path d="M93.72,60.07 C106.759866,59.0444254 119.860134,59.0444254 132.9,60.07 C132.9,60.07 103.96,62.76 93.72,60.07 Z" id="Shape" fill="#333333"></path>
                <path d="M116.17,21.46 C115.164523,21.423115 114.158104,21.5002738 113.17,21.69 L113.94,21.69 C120.71789,21.9068161 126.243635,27.1954948 126.757261,33.9573729 C127.270886,40.7192511 122.607376,46.7818952 115.94,48.02 C123.274341,48.0862738 129.273725,42.1943412 129.339999,34.86 C129.406274,27.5256587 123.514341,21.5262745 116.18,21.46 L116.17,21.46 Z" id="Shape" fill="#F55F44"></path>
                <ellipse id="Oval" fill="#FDA57D" cx="62.9" cy="122.06" rx="4.68" ry="8.77"></ellipse>
                <ellipse id="Oval" fill="#FDA57D" cx="163.49" cy="122.06" rx="4.68" ry="8.77"></ellipse>
                <polygon id="Shape" fill="#F55F44" points="74.22 77 84.03 71.94 86.24 80.05 80.23 84.14"></polygon>
            </g>
        </g>
    </g>
</svg>