<?xml version="1.0" encoding="UTF-8"?>
<svg width="60px" height="60px" viewBox="0 0 90 90" version="1.1" xmlns="http://www.w3.org/2000/svg" xmlns:xlink="http://www.w3.org/1999/xlink">
    <!-- Generator: Sketch 48.1 (47250) - http://www.bohemiancoding.com/sketch -->
    <title>noun_United Kingdom_629589_000000</title>
    <desc>Created with Sketch.</desc>
    <defs></defs>
    <g id="Page-1" stroke="none" stroke-width="1" fill="none" fill-rule="evenodd">
        <g id="noun_United-Kingdom_629589_000000" fill="#6D67F1" fill-rule="nonzero">
            <path d="M2.454,30.736 C2.311,31.164 2.174,31.595 2.043,32.029 L5.065,32.029 L2.454,30.736 Z" id="Shape"></path>
            <path d="M32.002,2.05 C22.398,4.963 14.148,11.011 8.446,19.004 L32.002,30.67 L32.002,2.05 Z" id="Shape"></path>
            <path d="M24.163,32.029 L5.867,23.07 C5.183,24.284 4.554,25.535 3.984,26.814 L14.63,32.029 L24.163,32.029 Z" id="Shape"></path>
            <path d="M87.96,32.029 C87.748,31.326 87.521,30.634 87.275,29.948 L83.077,32.029 L87.96,32.029 Z" id="Shape"></path>
            <path d="M72.598,32.028 L72.598,32.029 L85.423,25.524 C84.813,24.263 84.145,23.032 83.425,21.839 L63.327,32.028 L72.598,32.028 Z" id="Shape"></path>
            <path d="M56.202,1.543 L56.202,30.654 L81.06,18.323 C75.02,10.181 66.293,4.145 56.202,1.543 Z" id="Shape"></path>
            <path d="M13.271,76.73 C18.585,82.045 25,85.864 32.002,87.97 L32.002,57.359 L7.422,69.547 C9.103,72.107 11.057,74.518 13.271,76.73 Z" id="Shape"></path>
            <path d="M64.04,56.227 L64.04,56.229 L84.539,66.267 C85.201,65.035 85.807,63.772 86.354,62.488 L73.57,56.227 L64.04,56.227 Z" id="Shape"></path>
            <path d="M87.866,58.338 C88.085,57.64 88.285,56.938 88.467,56.229 L83.608,56.229 L87.866,58.338 Z" id="Shape"></path>
            <path d="M1.539,56.229 C1.653,56.681 1.776,57.132 1.907,57.58 L4.63,56.229 L1.539,56.229 Z" id="Shape"></path>
            <path d="M89.253,37.542 L50.69,37.542 L50.69,0.487 C48.826,0.252 46.928,0.129 45.001,0.129 C42.449,0.129 39.948,0.346 37.515,0.756 L37.515,37.54 L0.752,37.54 C0.345,39.967 0.129,42.459 0.129,44.998 C0.129,46.925 0.251,48.831 0.486,50.714 L37.515,50.714 L37.515,89.254 C39.964,89.661 42.467,89.87 45.001,89.87 C46.919,89.87 48.817,89.752 50.69,89.514 L50.69,50.714 L89.514,50.714 C89.749,48.833 89.87,46.925 89.87,44.998 C89.873,42.459 89.657,39.967 89.253,37.542 Z" id="Shape"></path>
            <path d="M15.605,56.229 L3.583,62.324 C4.122,63.614 4.722,64.877 5.382,66.112 L24.875,56.228 L15.605,56.228 L15.605,56.229 Z" id="Shape"></path>
            <path d="M56.202,88.472 C63.903,86.5 70.964,82.498 76.731,76.731 C78.756,74.705 80.562,72.521 82.144,70.205 L56.202,57.354 L56.202,88.472 Z" id="Shape"></path>
        </g>
    </g>
</svg>