<?xml version="1.0" encoding="UTF-8"?>
<svg width="1014px" height="611px" viewBox="0 0 1014 611" version="1.1" xmlns="http://www.w3.org/2000/svg" xmlns:xlink="http://www.w3.org/1999/xlink">
    <!-- Generator: Sketch 48.1 (47250) - http://www.bohemiancoding.com/sketch -->
    <title>undraw_message_sent_1030</title>
    <desc>Created with Sketch.</desc>
    <defs></defs>
    <g id="Page-1" stroke="none" stroke-width="1" fill="none" fill-rule="evenodd">
        <g id="undraw_message_sent_1030" transform="translate(-94.000000, -145.000000)">
            <path d="M783.46903,493.39394 L792.15903,491.89145 C792.99267,491.74536 793.82028,491.56745 794.65303,491.41637 C766.323273,473.831267 753.954495,438.967151 764.86767,407.459793 C775.780846,375.952435 807.064302,356.208104 840.20163,359.9133 L828.81152,387.01651 L855.79715,363.45351 C855.860099,363.469113 855.921702,363.489718 855.98137,363.51513 C873.828002,369.80067 888.446616,382.918554 896.62107,399.982803 C904.795524,417.047051 905.856158,436.659746 899.56963,454.50603 C899.11819,455.79103 898.58078,457.01798 898.06508,458.25994 C905.68338,454.43212 912.99154,449.97612 918.95131,444.27052 C931.01691,432.70869 937.62775,416.75394 945.01531,397.09731 C959.65137,358.14477 973.74263,318.6284 987.27159,279.02589 C956.446618,262.345491 942.313595,225.737119 953.93326,192.67055 C954.65816,190.6112 955.49791,188.62817 956.388,186.6806 C956.61049,186.1932 956.835,185.7089 957.06739,185.22847 C957.97196,183.36129 958.92692,181.53187 959.97491,179.77614 C960.14621,179.48831 960.33813,179.21897 960.51308,178.93426 C961.425213,177.45392 962.387353,176.017393 963.3995,174.62468 C963.77629,174.10179 964.15183,173.58035 964.5415,173.06988 C965.6883,171.57029 966.87592,170.11111 968.12826,168.71806 C968.54674,168.25195 968.99073,167.81645 969.42036,167.36238 C970.382487,166.347207 971.370987,165.362677 972.38586,164.40879 C972.92096,163.90661 973.45034,163.40079 973.99948,162.91641 C974.14042,162.79214 974.27191,162.65651 974.41375,162.53326 C974.42085,162.54235 974.42637,162.5521 974.43319,162.56108 C1000.36259,139.964996 1038.72807,139.103131 1065.64602,160.51202 L1050.82463,195.7821 L1077.50343,172.49931 C1096.66657,196.913982 1097.73484,230.950988 1080.14043,256.51931 C1080.16502,256.52798 1080.19043,256.53468 1080.21502,256.54331 C1079.92373,256.97143 1079.59291,257.36325 1079.29328,257.78373 C1078.73072,258.572903 1078.15478,259.34804 1077.56546,260.10914 C1076.80746,261.08514 1076.02031,262.02842 1075.21676,262.95882 C1074.61,263.6611 1074.01199,264.36921 1073.38044,265.04475 C1072.45669,266.03298 1071.48885,266.96869 1070.51463,267.89919 C1069.94576,268.44194 1069.40201,269.01219 1068.81702,269.53501 C1067.28347,270.90491 1065.69694,272.204727 1064.05743,273.43446 C1063.48234,273.86517 1062.87553,274.24511 1062.28854,274.6576 C1061.13741,275.46733 1059.98031,276.26516 1058.7853,277.00414 C1058.04373,277.46248 1057.28249,277.88146 1056.5253,278.31221 C1055.42944,278.93645 1054.3258,279.54121 1053.19906,280.10616 C1052.40022,280.50662 1051.59556,280.88675 1050.7824,281.25722 C1049.62552,281.78447 1048.45408,282.27345 1047.27032,282.73881 C1046.47595,283.05081 1045.68554,283.36681 1044.88011,283.65052 C1043.55143,284.11852 1042.20323,284.52509 1040.84702,284.9143 C1040.16249,285.11105 1039.48902,285.33614 1038.79812,285.5123 C1036.76366,286.03118 1034.70656,286.47289 1032.6253,286.8113 C1032.23392,286.87521 1031.83548,286.8993 1031.44261,286.95641 C1029.71746,287.20746 1027.98321,287.41004 1026.23515,287.5338 C1025.48374,287.58672 1024.72782,287.59434 1023.9732,287.62373 C1022.56029,287.67873 1021.14594,287.70673 1019.72387,287.67631 C1018.89449,287.65871 1018.06556,287.61581 1017.23401,287.5689 C1015.84934,287.49056 1014.4634,287.369973 1013.07619,287.20714 C1012.25595,287.11214 1011.43807,287.01786 1010.6173,286.89359 C1009.13084,286.66807 1007.64668,286.3732 1006.16181,286.05025 C1006.06448,286.02909 1005.96672,286.01625 1005.86922,285.99469 C1000.15898,302.70233 994.343017,319.374287 988.42133,336.01056 C1003.01841,322.884416 1022.38213,316.358293 1041.94663,317.971012 C1061.51113,319.58373 1079.54482,329.192554 1091.79548,344.53178 L1067.13131,371.80823 L1100.52542,358.47738 C1108.63678,375.486695 1109.66338,395.020528 1103.37964,412.78638 C1101.20242,419.029187 1098.15148,424.931945 1094.31782,430.31859 C1077.43474,454.199193 1047.68226,465.350598 1019.26216,458.449887 C990.84207,451.549176 969.516377,427.995428 965.46451,399.03159 C964.83711,400.7078 964.23093,402.40504 963.60191,404.07959 C957.0826,421.42087 948.97218,443.00201 932.68416,458.60495 C921.64345,469.18066 908.05945,475.89026 895.0267,481.5629 C886.54008,485.25632 877.940507,488.670987 869.22798,491.8069 C859.542103,497.679711 848.599453,501.167123 837.30156,501.98182 C823.55444,505.80061 809.63394,508.98847 795.5831,511.44976 L786.82194,512.96002 C778.94839,514.30881 770.87494,515.69749 762.86227,517.29747 C764.01599,517.63977 765.1712,517.96634 766.31889,518.37027 C795.614496,528.68111 814.877862,556.754988 813.95825,587.79851 L759.03302,604.65727 L808.73379,612.54983 C799.492222,635.261834 779.238927,651.63984 755.095956,655.924538 C730.952984,660.209237 706.300775,651.800696 689.80825,633.65577 C690.312723,635.34605 690.819253,637.033683 691.32784,638.71867 C692.33672,642.06718 693.33759,645.39675 694.299,648.69467 C707.37717,693.6328 701.74878,728.98226 678.44779,748.22698 L665.80411,732.92188 C688.48211,714.18815 681.44622,675.58625 675.23778,654.23978 C674.29408,651.00138 673.30869,647.73039 672.31753,644.44137 C663.79953,616.14358 654.14334,584.06824 666.64966,554.59364 C685.49787,510.1693 739.8202,500.86769 783.46903,493.39394 Z" id="Shape" fill="#F2F2F2" fill-rule="nonzero"></path>
            <path d="M767.37107,753.99156 L382.53731,753.99156 C356.257878,753.99156 334.95419,732.687872 334.95419,706.40844 L334.95419,530.09669 C334.954191,524.922289 337.081168,519.975382 340.83651,516.41563 L544.76033,323.11282 C561.690763,307.06419 588.217627,307.06419 605.14806,323.11282 L799.57863,507.41678 C809.394584,516.721494 814.954209,529.652044 814.95421,543.17723 L814.95421,706.40844 C814.95421,719.028272 809.941,731.131227 801.01743,740.054794 C792.093859,748.97836 779.990902,753.991565 767.37107,753.99156 Z" id="Shape" fill="#3F3D56" fill-rule="nonzero"></path>
            <path d="M334.95419,532.99156 L810.95419,532.99156 L810.95419,725.25928 C810.95419,741.12768 798.09031,753.99156 782.22191,753.99156 L363.68647,753.99156 C347.81807,753.99156 334.95419,741.12768 334.95419,725.25928 L334.95419,532.99156 Z" id="Shape" fill="#000000" fill-rule="nonzero" opacity="0.1"></path>
            <g id="Group" transform="translate(0.724630, 0.140690)"></g>
            <rect id="Rectangle-path" fill="#6C63FF" fill-rule="nonzero" x="397.45419" y="381.49156" width="354" height="354" rx="26.1811"></rect>
            <polygon id="Shape" fill="#000000" fill-rule="nonzero" opacity="0.1" points="751.454 540.942 751.454 735.492 397.454 735.492 397.454 540.942 574.454 626.492"></polygon>
            <path d="M574.45419,637.49156 L347.66039,527.87456 C344.808816,526.496302 341.448855,526.681388 338.76592,528.36452 C336.082986,530.047651 334.454193,532.992244 334.45419,536.15943 L334.45419,724.75927 C334.454187,732.379546 337.481328,739.687717 342.869676,745.076066 C348.258024,750.464416 355.566194,753.49156 363.18647,753.49156 L785.72191,753.49156 C793.342186,753.49156 800.650356,750.464416 806.038704,745.076066 C811.427052,739.687717 814.454193,732.379546 814.45419,724.75927 L814.45419,539.39027 C814.454195,535.525458 812.466638,531.932266 809.192743,529.878396 C805.918848,527.824526 801.818798,527.598673 798.33912,529.28052 L574.45419,637.49156 Z" id="Shape" fill="#3F3D56" fill-rule="nonzero"></path>
            <rect id="Rectangle-path" fill="#F2F2F2" fill-rule="nonzero" x="427.95419" y="413.99156" width="99" height="14"></rect>
            <rect id="Rectangle-path" fill="#F2F2F2" fill-rule="nonzero" x="419.95419" y="464.99156" width="294" height="8"></rect>
            <rect id="Rectangle-path" fill="#F2F2F2" fill-rule="nonzero" x="419.95419" y="491.99156" width="294" height="8"></rect>
            <rect id="Rectangle-path" fill="#F2F2F2" fill-rule="nonzero" x="419.95419" y="518.99156" width="294" height="8"></rect>
            <path d="M154.95419,753.49156 L978.95419,753.49156" id="Shape" stroke="#3F3D56"></path>
            <path d="M94,630.35309 C94,689.31336 130.98858,737.02326 176.69935,737.02326" id="Shape" fill="#46455B" fill-rule="nonzero"></path>
            <path d="M176.69935,737.02326 C176.69935,677.40052 217.97645,629.15455 268.98702,629.15455" id="Shape" fill="#6C63FF" fill-rule="nonzero"></path>
            <path d="M123.96353,635.69794 C123.96353,691.70394 147.55045,737.02326 176.69935,737.02326" id="Shape" fill="#6C63FF" fill-rule="nonzero"></path>
            <path d="M176.69935,737.02326 C176.69935,660.83865 224.40925,599.19102 283.36951,599.19102" id="Shape" fill="#46455B" fill-rule="nonzero"></path>
            <path d="M159.30154,737.7753 C159.30154,737.7753 171.02967,737.41408 174.56423,734.89717 C178.09879,732.38026 192.60504,729.37492 193.48188,733.4115 C194.35872,737.44808 211.10708,753.48761 197.86608,753.59441 C184.62508,753.70121 167.09989,751.53192 163.57213,749.38302 C160.04437,747.23412 159.30154,737.7753 159.30154,737.7753 Z" id="Shape" fill="#A8A8A8" fill-rule="nonzero"></path>
            <path d="M198.10238,752.18926 C184.86138,752.2961 167.3362,750.12679 163.80843,747.97788 C161.12185,746.34138 160.05128,740.46922 159.69307,737.76003 C159.445,737.7707 159.30154,737.77529 159.30154,737.77529 C159.30154,737.77529 160.04437,747.23411 163.57214,749.38301 C167.09991,751.53191 184.62514,753.70123 197.86608,753.59439 C201.68824,753.56357 203.00847,752.2037 202.93598,750.18962 C202.405,751.40648 200.94726,752.16633 198.10238,752.18926 Z" id="Shape" fill="#000000" fill-rule="nonzero" opacity="0.2"></path>
            <path d="M813.71309,307.77057 C813.11209,313.12511 809.02797,317.43839 807.51471,322.60968 C805.23703,330.39318 809.17548,338.74557 814.56292,344.80743 C823.343177,354.583072 835.671578,360.436755 848.79656,361.062 C850.705464,361.229807 852.628731,361.020195 854.45667,360.44512 C856.088722,359.788401 857.558191,358.784163 858.76295,357.5022 C862.8202,353.42833 864.99813,347.78368 865.86609,342.09998 C866.73405,336.41628 866.39674,330.62583 866.05734,324.88627 C866.059004,323.699821 865.843451,322.523092 865.42134,321.41427 C864.868071,320.358008 864.108106,319.42375 863.18661,318.66702 C860.265573,315.987414 857.048105,313.650124 853.59673,311.70057 C852.036697,311.001513 850.660901,309.948752 849.57835,308.6257 C848.926103,307.492277 848.503982,306.241259 848.33619,304.94437 L847.27674,299.54549 C847.08775,297.989662 846.556397,296.495032 845.72088,295.16905 C843.84928,292.64429 840.26918,292.3007 837.12878,292.17751 L825.62363,291.72619 C822.04487,291.5858 817.32941,290.55955 813.83575,291.26238 C810.57336,291.91869 811.65703,294.925 812.24964,297.66238 C813.109007,300.967442 813.599813,304.35749 813.71309,307.77057 Z" id="Shape" fill="#A0616A" fill-rule="nonzero"></path>
            <path d="M813.71309,307.77057 C813.11209,313.12511 809.02797,317.43839 807.51471,322.60968 C805.23703,330.39318 809.17548,338.74557 814.56292,344.80743 C823.343177,354.583072 835.671578,360.436755 848.79656,361.062 C850.705464,361.229807 852.628731,361.020195 854.45667,360.44512 C856.088722,359.788401 857.558191,358.784163 858.76295,357.5022 C862.8202,353.42833 864.99813,347.78368 865.86609,342.09998 C866.73405,336.41628 866.39674,330.62583 866.05734,324.88627 C866.059004,323.699821 865.843451,322.523092 865.42134,321.41427 C864.868071,320.358008 864.108106,319.42375 863.18661,318.66702 C860.265573,315.987414 857.048105,313.650124 853.59673,311.70057 C852.036697,311.001513 850.660901,309.948752 849.57835,308.6257 C848.926103,307.492277 848.503982,306.241259 848.33619,304.94437 L847.27674,299.54549 C847.08775,297.989662 846.556397,296.495032 845.72088,295.16905 C843.84928,292.64429 840.26918,292.3007 837.12878,292.17751 L825.62363,291.72619 C822.04487,291.5858 817.32941,290.55955 813.83575,291.26238 C810.57336,291.91869 811.65703,294.925 812.24964,297.66238 C813.109007,300.967442 813.599813,304.35749 813.71309,307.77057 Z" id="Shape" fill="#000000" fill-rule="nonzero" opacity="0.1"></path>
            <path d="M886.90118,548.78138 C885.27118,566.653587 883.641197,584.52303 882.01123,602.38971 C880.73523,616.45039 879.43453,630.56871 876.93195,644.44824 C876.06753,649.23116 875.05495,653.98942 873.85305,658.70648 C870.51077,671.80395 865.66205,684.60507 864.09787,698.03189 C864.04848,698.41878 864.00733,698.81389 863.96618,699.2091 C863.791054,702.178125 863.229255,705.111606 862.29501,707.93525 C861.51294,709.98507 860.31101,711.8538 859.46312,713.87895 C857.77552,717.9292 857.55323,722.40754 857.34743,726.79528 C851.411012,723.456819 844.912488,721.235778 838.17456,720.24245 C834.92282,719.75673 831.30067,719.41099 829.08619,716.98245 C826.63295,714.29873 826.90463,710.19085 827.31619,706.58513 C828.608663,695.38931 829.898383,684.198977 831.18535,673.01413 C831.605355,668.202042 832.423133,663.432999 833.6303,658.75589 C834.07488,657.19998 834.60994,655.6688 835.1533,654.13762 C835.90241,652.03017 836.65976,649.92271 837.22779,647.75762 C838.046344,644.259399 838.618521,640.708071 838.94011,637.12978 C840.26548,625.86808 841.86254,614.63106 843.26203,603.3776 L843.33614,602.7849 C845.43535,585.72768 847.03241,568.58816 846.57141,551.40748 C846.50553,548.86375 846.39851,546.31996 846.23386,543.76799 C846.00338,540.07172 845.66586,538.11245 848.72825,535.79919 C852.11169,533.24719 856.56525,531.46078 860.43447,529.78962 C862.51725,528.88409 885.45225,520.7424 885.98736,522.52883 C887.063273,526.339272 887.628004,530.275803 887.66672,534.23504 C887.683077,539.094304 887.427497,543.950676 886.90118,548.78138 Z" id="Shape" fill="#605D82" fill-rule="nonzero"></path>
            <path d="M876.93195,644.44824 C876.06753,649.23116 875.05495,653.98942 873.85305,658.70648 C870.51077,671.80395 865.66205,684.60507 864.09787,698.03189 C864.04848,698.41878 864.00733,698.81389 863.96618,699.2091 C853.7417,684.6051 845.13081,668.89799 835.15335,654.1376 C835.90246,652.03015 836.65981,649.92269 837.22784,647.7576 C838.046394,644.259379 838.618571,640.708051 838.94016,637.12976 C840.26553,625.86806 841.86259,614.63104 843.26208,603.37758 L843.33619,602.78488 C843.921784,605.173961 844.75786,607.494574 845.83053,609.70817 C852.53159,623.32433 868.45271,630.20647 876.24042,643.23806 C876.47914,643.641487 876.70965,644.04488 876.93195,644.44824 Z" id="Shape" fill="#000000" fill-rule="nonzero" opacity="0.1"></path>
            <path d="M793.96706,524.71869 C794.30476,535.63951 796.05294,546.46179 797.7975,557.24769 L801.39695,579.50138 C803.36695,591.68089 805.41795,604.10861 811.18167,615.01738 C815.49326,623.17768 821.70519,630.14113 827.32484,637.46232 C841.14022,655.46077 851.51893,675.84923 864.61894,694.37485 C868.42665,699.7596 873.86936,705.58298 880.36782,704.45862 C884.63282,703.72068 887.73055,700.16975 891.08308,697.43194 C895.0356,694.20415 899.79931,691.84229 902.90921,687.79636 C906.01911,683.75043 906.62843,677.02525 902.41512,674.14618 C900.890578,673.301667 899.272004,672.639385 897.59275,672.17298 C891.06125,669.68898 886.83368,663.31074 884.14375,656.86131 C881.45382,650.41188 879.82406,643.47706 876.23965,637.47849 C868.45274,624.44695 852.52934,617.56511 845.82665,603.94413 C842.07257,596.31521 841.71478,587.52221 841.42783,579.02449 L840.69633,557.3624 C840.61633,554.99353 840.55375,552.52983 841.51672,550.36404 C844.08057,544.59779 851.82167,544.06071 858.08972,543.32969 C865.203761,542.495936 872.095368,540.321614 878.39981,536.9218 C882.01004,534.97227 885.53711,532.487 887.46848,528.86703 C889.23054,525.56439 889.47371,521.69071 889.68034,517.95312 L891.85065,478.69531 C892.03737,475.3178 892.20765,471.82555 891.01725,468.65931 C888.02818,460.70883 877.98871,458.11084 869.50338,458.49017 C853.71338,459.19605 839.13675,465.9884 824.24876,470.57534 C820.561164,471.738498 816.817276,472.715021 813.03135,473.50119 C809.69003,474.17172 805.64622,473.8935 802.45947,474.96785 C796.79219,476.87848 796.93609,489.27223 796.13247,494.41332 C794.472719,504.426135 793.747794,514.571614 793.96706,524.71869 Z" id="Shape" fill="#605D82" fill-rule="nonzero"></path>
            <path d="M878.22384,706.10459 C879.61621,707.50878 880.07134,709.56594 880.43404,711.50988 C882.445265,722.292827 883.491404,733.233576 883.56004,744.20227 C883.466988,745.225689 883.671297,746.254216 884.14844,747.16437 C884.540548,747.707215 885.071865,748.134202 885.68637,748.40031 C889.71061,750.31831 894.38153,747.64531 897.73484,744.70787 C903.95112,739.26245 909.21112,731.9534 909.5642,723.69687 C909.499486,721.57023 909.573978,719.441634 909.7872,717.32472 C910.3332,714.21634 912.14833,711.50802 913.74769,708.78734 C916.469512,704.156002 918.664865,699.234803 920.29282,694.11549 C920.90419,692.19217 921.31082,689.77043 919.80373,688.42817 C919.269378,688.009469 918.661901,687.693666 918.01221,687.49683 L899.83363,680.74712 C898.25834,680.16222 894.33847,690.23142 893.71632,691.33222 C892.19444,694.0249 890.6812,695.55352 887.628,696.17506 C884.5114,696.8095 880.80138,695.89914 877.89334,697.45406 C872.97408,700.08432 875.43852,703.2956 878.22384,706.10459 Z" id="Shape" fill="#535070" fill-rule="nonzero"></path>
            <path d="M850.17392,712.31838 C849.835815,711.646224 849.365131,711.049474 848.79023,710.56409 C847.948656,710.030327 846.991786,709.705248 845.99923,709.6159 C842.53845,709.02828 838.43651,708.64136 836.0479,711.21368 C833.8085,713.62533 834.19349,717.55405 832.32127,720.26068 C831.72858,721.11752 830.92553,721.82368 830.41166,722.72998 C829.773848,724.115382 829.486167,725.636266 829.57391,727.15891 C829.47728,731.35416 829.3808,735.55653 829.6706,739.74291 C829.91345,743.25091 830.50477,746.92691 832.69848,749.67518 C836.21953,754.08628 842.57,754.72057 848.20681,755.00687 L852.77206,755.23874 C854.029371,755.391554 855.304814,755.274623 856.51338,754.89574 C858.024823,754.197097 859.188975,752.916229 859.74047,751.34511 C862.11684,745.43863 858.35347,739.07504 856.03531,733.14547 C853.37086,726.32994 853.8493,718.76219 850.17392,712.31838 Z" id="Shape" fill="#535070" fill-rule="nonzero"></path>
            <path d="M812.39042,277.59997 C812.33449,277.001193 812.422488,276.397721 812.64708,275.83985 C813.31574,274.65753 815.06174,274.97931 816.37883,275.31137 C821.67559,276.64676 827.25668,275.43797 832.71026,275.74994 C838.16384,276.06191 844.30691,278.78828 845.40344,284.13958 C849.361867,281.333315 852.774126,277.827272 855.47206,273.79423 C856.98561,271.52923 858.30488,268.93484 858.09883,266.21847 C857.80164,262.30047 854.5144,259.37037 851.47064,256.88559 L842.3974,249.47859 C841.20666,248.384159 839.831192,247.509668 838.33494,246.89577 C836.23973,246.17977 833.95488,246.52091 831.74071,246.52233 C825.136,246.52656 818.0941,243.52076 812.22001,246.54026 C809.76627,247.80157 807.9194,249.96302 806.13901,252.07058 L798.04101,261.65648 C797.431433,262.267406 796.986157,263.022492 796.74655,263.85159 C796.51615,265.02168 797.11705,266.17644 797.32674,267.35041 C797.70925,269.4919 796.7869,271.77741 797.49601,273.83396 C798.67324,277.24809 802.81859,277.73138 805.35287,279.68866 C806.29741,280.41815 807.77774,282.8904 808.90312,282.86021 C810.93363,282.80574 812.33763,279.17753 812.39042,277.59997 Z" id="Shape" fill="#3F3D56" fill-rule="nonzero"></path>
            <circle id="Oval" fill="#A0616A" fill-rule="nonzero" cx="826.13079" cy="279.92476" r="25.93155"></circle>
            <path d="M832.20442,336.67643 C830.398909,331.504832 825.450438,328.099455 819.9751,328.26061 C819.211826,328.402687 818.423239,328.302977 817.71935,327.97539 C817.321277,327.669534 817.003183,327.271836 816.79226,326.81629 C815.215463,323.980787 813.947857,320.984089 813.01126,317.87778 C812.59757,316.50522 812.03185,314.88708 810.64343,314.53023 C809.47202,314.376931 808.311482,314.881756 807.62499,315.84323 C806.965574,316.792992 806.244911,317.698731 805.46759,318.55468 C802.20619,321.4708 796.42489,318.81292 792.96328,321.48832 C792.39785,321.92532 791.93121,322.48513 791.33734,322.88264 C790.742943,323.240443 790.102317,323.515102 789.43334,323.69895 C782.748764,325.881218 776.195809,328.447745 769.80721,331.38571 C772.10978,345.25252 774.46921,359.36109 779.8665,372.3403 C782.43499,378.51696 785.34573,384.5663 787.4025,390.93165 C791.95972,405.03531 792.16176,420.12555 792.21291,434.94711 C792.24791,445.09117 792.19749,455.4518 788.91553,465.05034 C788.032635,467.171566 787.410306,469.392056 787.06218,471.66316 C786.86397,473.95041 787.52975,476.47232 789.38298,477.82743 C790.457454,478.530153 791.686339,478.961782 792.96425,479.0853 C798.65101,479.91973 804.38405,478.4063 809.9835,477.10951 C824.99172,473.63379 840.2983,471.64492 855.5755,469.66128 L881.17535,466.33728 C883.010335,466.212644 884.806245,465.748493 886.47183,464.96841 C891.15631,462.40356 891.60103,455.35709 888.69195,450.87824 C887.29731,448.73103 885.3296,446.9695 884.15779,444.69301 C882.98598,442.41652 882.88619,439.23313 884.90349,437.6564 C889.00696,434.44911 887.78295,428.49852 887.97866,423.29401 C888.52588,408.74153 888.451847,394.183367 887.75656,379.61952 C887.551034,376.604749 887.502786,373.581314 887.61201,370.56152 C888.066948,365.444452 889.012407,360.38292 890.43536,355.44667 L898.21409,324.81867 C896.18202,321.60753 892.29119,319.57022 888.60539,318.64524 C884.91959,317.72026 881.08073,317.44803 877.45091,316.32324 C870.01463,314.01897 863.39426,308.17124 855.62825,308.71624 C855.040811,308.726793 854.463073,308.867866 853.93688,309.12924 C852.18536,310.12149 852.46274,312.6456 852.35078,314.65553 C852.10308,319.1024 848.83239,322.81897 845.22047,325.42474 C841.60855,328.03051 837.48347,329.93057 834.16608,332.90229 C832.975566,333.79935 832.254513,335.186621 832.20442,336.67643 Z" id="Shape" fill="#3F3D56" fill-rule="nonzero"></path>
            <path d="M729.45499,365.728 C727.735375,366.843772 725.908045,367.784014 724.00051,368.53457 C722.132613,369.090226 720.367799,369.94669 718.77551,371.07026 C718.041657,371.704988 717.426453,372.465091 716.9586,373.31511 C715.170662,376.485534 715.249918,380.377778 717.165436,383.47279 C719.080954,386.567803 722.529118,388.375013 726.16419,388.18911 C728.536111,387.923341 730.841481,387.23598 732.97166,386.15942 L751.26163,378.23379 C754.35728,376.89235 757.70123,375.32027 759.16439,372.28026 C759.334862,371.996697 759.398043,371.66142 759.34247,371.33526 C759.194988,370.990358 758.928329,370.710036 758.59122,370.54552 C754.465787,367.8663 750.857951,364.464281 747.9413,360.50315 C747.19091,359.48434 746.27275,357.07873 745.21205,356.4679 C741.34063,354.23841 732.55369,363.71703 729.45499,365.728 Z" id="Shape" fill="#A0616A" fill-rule="nonzero"></path>
            <path d="M924.98244,359.22449 L931.72557,366.9274 C933.1732,368.58107 934.62238,370.23666 935.94196,371.99421 C939.182381,376.459986 941.781922,381.357255 943.66496,386.54355 C945.13071,390.38975 946.34726,394.48662 945.83507,398.57066 C945.495015,400.66435 944.929548,402.715128 944.14853,404.68723 C942.912638,408.480102 941.380588,412.169984 939.56653,415.7228 C938.04073,418.422071 936.317319,421.00476 934.41041,423.44972 C929.189572,430.369263 923.476909,436.903607 917.3168,443.00199 C915.0115,445.28405 914.04472,448.97399 913.04121,452.05869 C911.19021,457.7484 906.78588,462.17988 902.52676,466.38212 C901.158073,467.827424 899.645365,469.129177 898.01218,470.26712 C895.565375,471.842983 892.705966,472.657327 889.79604,472.60703 C888.522188,472.615919 887.260906,472.354827 886.09527,471.84095 C883.18066,470.4569 881.69932,467.08654 881.39569,463.87432 C881.124372,460.9593 881.612878,458.02371 882.8136,455.35365 C886.68304,446.78203 896.6196,443.06765 903.6432,436.81349 C907.76172,433.14616 910.9112,428.53961 914.01743,423.98296 C916.127283,421.137972 917.888713,418.050471 919.26407,414.78645 C920.83263,410.60115 920.22207,405.64645 921.59245,401.39207 C922.17169,399.59376 923.20152,397.97001 923.82436,396.18632 C924.4472,394.40263 924.60401,392.28524 923.51446,390.74175 C922.692517,389.760783 921.644902,388.993818 920.46146,388.50663 C915.97464,386.22936 910.94946,383.29863 910.09073,378.34076 C909.74844,375.591337 910.466861,372.814814 912.09973,370.57646 C913.726695,368.367971 915.627951,366.375382 917.75773,364.64666 C919.72005,362.91147 923.02005,360.95969 924.98244,359.22449 Z" id="Shape" fill="#A0616A" fill-rule="nonzero"></path>
            <path d="M725.12595,376.48054 C723.93528,374.07535 722.44671,371.62146 720.0441,370.42554 C717.6901,369.403454 715.019785,369.392248 712.65729,370.39454 C710.327532,371.398991 708.146387,372.717924 706.17471,374.31454 L700.36248,378.59904 C699.044673,379.46347 697.878745,380.539693 696.9118,381.78423 C695.994638,383.293848 695.383936,384.969397 695.11459,386.71513 C694.101534,390.69636 693.792275,394.824043 694.20078,398.91178 C695.12315,405.46614 699.07478,411.18823 703.42428,416.17747 C706.14214,419.2951 709.4977,422.44128 713.63155,422.57426 C715.41597,422.63166 717.40049,421.92831 718.14264,420.30453 C718.399634,419.660748 718.5362,418.975239 718.54554,418.28212 C718.99209,410.97138 716.37686,403.8305 713.32717,397.17125 C712.354809,395.427553 711.780222,393.490345 711.64459,391.49847 C711.622723,391.163261 711.70989,390.829972 711.89307,390.54839 C712.156104,390.274618 712.507678,390.102961 712.88532,390.06392 C717.05938,389.23829 724.24901,392.48092 727.17719,387.8456 C729.07547,384.84063 726.47493,379.20554 725.12595,376.48054 Z" id="Shape" fill="#A0616A" fill-rule="nonzero"></path>
            <path d="M811.03048,269.44029 C810.974547,268.841514 811.062541,268.238042 811.28713,267.68017 C811.95579,266.49785 813.7018,266.81963 815.01889,267.15169 C820.31564,268.48708 825.89673,267.27829 831.35031,267.59026 C836.80389,267.90223 842.94696,270.6286 844.0435,275.9799 C848.001927,273.173635 851.414186,269.667592 854.11212,265.63455 C855.62566,263.36955 856.94493,260.77516 856.73888,258.05879 C856.44169,254.14084 853.15445,251.2107 850.1107,248.72591 L841.03745,241.31891 C839.846713,240.224478 838.471244,239.349989 836.97499,238.7361 C834.87978,238.0201 832.59493,238.36123 830.38076,238.36265 C823.77605,238.36689 816.73415,235.36109 810.86007,238.38058 C808.40633,239.64189 806.55946,241.80334 804.77907,243.91091 L796.68107,253.49681 C796.071495,254.107733 795.626219,254.862816 795.38661,255.69191 C795.15621,256.862 795.75711,258.01676 795.96681,259.19074 C796.34932,261.33223 795.42696,263.61774 796.13607,265.67428 C797.31331,269.08841 801.45865,269.5717 803.99294,271.52899 C804.93747,272.25847 806.4178,274.73073 807.54318,274.70053 C809.57363,274.64606 810.97768,271.01785 811.03048,269.44029 Z" id="Shape" fill="#3F3D56" fill-rule="nonzero"></path>
            <path d="M755.95397,340.50477 C754.907011,341.180016 753.988038,342.035503 753.2397,343.03153 C752.28895,344.46901 752.0957,346.28374 751.27903,347.80139 C749.5314,351.04895 745.44378,352.2043 742.89379,354.86858 C742.48868,355.23491 742.207169,355.717876 742.08806,356.25091 C742.075764,356.973982 742.318254,357.67833 742.77306,358.24059 L755.06976,377.57215 C759.16397,377.93264 763.09176,375.36756 767.18771,375.70806 C768.71705,375.8352 770.28199,376.36343 771.74855,375.9115 C772.798502,375.445949 773.782556,374.844122 774.67532,374.12155 C777.11896,372.57644 780.37356,372.39641 782.42371,370.35788 C784.39123,368.4015 784.64227,365.34059 784.61881,362.56605 C784.651684,360.156605 784.406394,357.751415 783.88781,355.39821 C782.07743,347.97801 776.40241,342.28373 772.84472,335.71081 C771.11272,332.51081 770.17025,330.63752 766.50429,332.83472 C762.81931,335.04328 759.42196,337.96869 755.95397,340.50477 Z" id="Shape" fill="#3F3D56" fill-rule="nonzero"></path>
            <path d="M905.29541,330.72883 C907.606324,332.229456 909.689668,334.054293 911.4816,336.14742 C913.3549,338.56288 914.41589,341.51901 916.21538,343.98995 C917.95961,346.38501 920.33393,348.23995 922.31238,350.44541 C925.31282,353.79012 927.34514,357.87064 929.34087,361.89641 C924.466297,368.253832 919.151159,374.260981 913.4347,379.8735 C912.798425,380.623281 911.960063,381.174394 911.01945,381.46121 C909.719892,381.599195 908.437709,381.076468 907.60505,380.06921 C906.71945,379.14008 906.09177,377.99463 905.24513,377.02986 C903.246891,374.968501 900.58383,373.680518 897.72726,373.39386 C894.896065,373.120204 892.047097,373.080971 889.20944,373.27656 C888.586418,373.345963 887.956391,373.240083 887.39028,372.97084 C886.969365,372.680372 886.62808,372.288911 886.3977,371.83233 C883.06841,366.1671 884.13928,359.05425 885.31387,352.58901 L888.00913,337.75364 C888.399629,334.920304 889.153562,332.14909 890.25231,329.50844 C891.27304,327.32671 893.55597,323.62702 896.36287,324.28016 C899.19245,324.93853 902.91488,329.01656 905.29541,330.72883 Z" id="Shape" fill="#3F3D56" fill-rule="nonzero"></path>
            <ellipse id="Oval" fill="#FFFFFF" fill-rule="nonzero" cx="411.95419" cy="387.06613" rx="41" ry="41.07457"></ellipse>
            <path d="M411.95419,338.99156 C384.892237,338.99156 362.95419,360.929607 362.95419,387.99156 C362.95419,415.053513 384.892237,436.99156 411.95419,436.99156 C439.016143,436.99156 460.95419,415.053513 460.95419,387.99156 C460.875073,360.962447 438.983303,339.070677 411.95419,338.99156 Z M401.89506,414.11704 L376.78256,389.00453 L383.8263,381.96079 L401.91863,400.0531 L440.10563,361.8661 L447.14938,368.90985 L401.89505,414.11706 L401.89506,414.11704 Z" id="Shape" fill="#57B894" fill-rule="nonzero"></path>
        </g>
    </g>
</svg>