<?xml version="1.0" encoding="UTF-8"?>
<svg width="85px" height="59px" viewBox="0 0 85 59" version="1.1" xmlns="http://www.w3.org/2000/svg" xmlns:xlink="http://www.w3.org/1999/xlink">
    <!-- Generator: Sketch 48.1 (47250) - http://www.bohemiancoding.com/sketch -->
    <title>most </title>
    <desc>Created with Sketch.</desc>
    <defs></defs>
    <g id="Page-1" stroke="none" stroke-width="1" fill="none" fill-rule="evenodd" opacity="0.80151721">
        <g id="London" transform="translate(-207.000000, 0.000000)" fill-rule="nonzero">
            <g id="most-" opacity="0.4" transform="translate(207.000000, 0.000000)">
                <rect id="Rectangle-path" x="26.97696" y="18.5755615" width="30.94416" height="3.3309973"></rect>
                <path d="M57.92112,22.4467206 L26.97696,22.4467206 C26.6830933,22.4467206 26.4773867,22.2066487 26.4773867,21.9365678 L26.4773867,18.6055705 C26.4773867,18.3054807 26.71248,18.0954178 26.97696,18.0954178 L57.92112,18.0954178 C58.2149867,18.0954178 58.4206933,18.3354897 58.4206933,18.6055705 L58.4206933,21.9365678 C58.4206933,22.2066487 58.1856,22.4467206 57.92112,22.4467206 Z M27.50592,21.3964061 L57.4215467,21.3964061 L57.4215467,19.1157233 L27.50592,19.1157233 L27.50592,21.3964061 Z" id="Shape" fill="#61616B"></path>
                <path d="M57.92112,21.0062893 L26.97696,21.0062893 C26.6830933,21.0062893 26.4773867,20.7662174 26.4773867,20.4961366 C26.4773867,20.1960467 26.71248,19.9859838 26.97696,19.9859838 L57.92112,19.9859838 C58.2149867,19.9859838 58.4206933,20.2260557 58.4206933,20.4961366 C58.4206933,20.7962264 58.1856,21.0062893 57.92112,21.0062893 Z" id="Shape" fill="#61616B"></path>
                <polygon id="Shape" fill="#FFFFFF" points="44.7265067 17.3752022 42.4343467 16.2348607 40.1715733 17.3752022 40.1715733 20.4961366 44.7265067 20.4961366"></polygon>
                <path d="M44.7265067,21.0062893 L40.1421867,21.0062893 C39.84832,21.0062893 39.6426133,20.7662174 39.6426133,20.4961366 L39.6426133,17.3752022 C39.6426133,17.1651393 39.76016,16.9850854 39.93648,16.8950584 L42.22864,15.754717 C42.3755733,15.694699 42.5518933,15.694699 42.66944,15.754717 L44.9616,16.8950584 C45.13792,16.9850854 45.2554667,17.1651393 45.2554667,17.3752022 L45.2554667,20.4961366 C45.2554667,20.7962264 45.0203733,21.0062893 44.7265067,21.0062893 Z M40.6711467,19.9559748 L44.2269333,19.9559748 L44.2269333,17.705301 L42.4637333,16.8050314 L40.7005333,17.705301 L40.7005333,19.9559748 L40.6711467,19.9559748 Z" id="Shape" fill="#61616B"></path>
                <path d="M0.852213333,40.2420485 C0.61712,40.2420485 0.411413333,40.0619946 0.35264,39.8219227 C0.293866667,39.5518419 0.470186667,39.251752 0.764053333,39.1917341 C5.78917333,38.1414196 9.52128,33.9101527 11.7546667,30.5491465 C14.19376,26.8580413 15.4573867,23.3469901 15.4573867,23.3169811 C15.5455467,23.0469003 15.8394133,22.8968553 16.1038933,23.0168913 C16.3683733,23.1069182 16.5153067,23.4070081 16.39776,23.6770889 C16.3389867,23.8271339 15.1047467,27.3081761 12.5774933,31.1193172 C11.0787733,33.369991 9.46250667,35.2305481 7.75808,36.7009883 C5.61285333,38.5615454 3.29130667,39.7318958 0.910986667,40.2420485 C0.940373333,40.2420485 0.910986667,40.2420485 0.852213333,40.2420485 Z" id="Shape" fill="#61616B"></path>
                <path d="M84.0458667,40.2420485 C84.01648,40.2420485 83.9870933,40.2420485 83.92832,40.2420485 C81.548,39.7318958 79.2264533,38.5615454 77.0812267,36.7009883 C75.3768,35.2305481 73.7605333,33.369991 72.2618133,31.1193172 C69.73456,27.3081761 68.50032,23.8271339 68.4415467,23.6770889 C68.3533867,23.4070081 68.4709333,23.1069182 68.7354133,23.0168913 C68.9998933,22.9268643 69.29376,23.0469003 69.38192,23.3169811 C69.38192,23.3469901 70.6455467,26.8580413 73.08464,30.5491465 C75.3180267,33.9101527 79.0501333,38.1414196 84.0752533,39.1917341 C84.3397333,39.251752 84.54544,39.5218329 84.4866667,39.8219227 C84.4866667,40.0619946 84.28096,40.2420485 84.0458667,40.2420485 Z" id="Shape" fill="#61616B"></path>
                <rect id="Rectangle-path" stroke="#979797" stroke-width="0.5" x="13.6941867" y="49.8449236" width="15.1341333" height="8.28247978"></rect>
                <path d="M28.82832,58.6375562 L13.6941867,58.6375562 C13.40032,58.6375562 13.1946133,58.3974843 13.1946133,58.1274034 L13.1946133,49.8449236 C13.1946133,49.5448338 13.4297067,49.3347709 13.6941867,49.3347709 L28.82832,49.3347709 C29.1221867,49.3347709 29.3278933,49.5748428 29.3278933,49.8449236 L29.3278933,58.1274034 C29.35728,58.4274933 29.1221867,58.6375562 28.82832,58.6375562 Z M14.2231467,57.5872417 L28.3287467,57.5872417 L28.3287467,50.3550764 L14.2231467,50.3550764 L14.2231467,57.5872417 Z" id="Shape" fill="#61616B"></path>
                <rect id="Rectangle-path" x="13.6941867" y="49.8449236" width="15.1341333" height="2.28068284"></rect>
                <path d="M28.82832,52.6357592 L13.6941867,52.6357592 C13.40032,52.6357592 13.1946133,52.3956873 13.1946133,52.1256065 L13.1946133,49.8449236 C13.1946133,49.5448338 13.4297067,49.3347709 13.6941867,49.3347709 L28.82832,49.3347709 C29.1221867,49.3347709 29.3278933,49.5748428 29.3278933,49.8449236 L29.3278933,52.1256065 C29.35728,52.3956873 29.1221867,52.6357592 28.82832,52.6357592 Z M14.2231467,51.5854447 L28.3287467,51.5854447 L28.3287467,50.3550764 L14.2231467,50.3550764 L14.2231467,51.5854447 Z" id="Shape" fill="#61616B"></path>
                <rect id="Rectangle-path" x="55.6583467" y="49.8449236" width="15.1341333" height="8.28247978"></rect>
                <path d="M70.79248,58.6375562 L55.6583467,58.6375562 C55.36448,58.6375562 55.1587733,58.3974843 55.1587733,58.1274034 L55.1587733,49.8449236 C55.1587733,49.5448338 55.3938667,49.3347709 55.6583467,49.3347709 L70.79248,49.3347709 C71.0863467,49.3347709 71.2920533,49.5748428 71.2920533,49.8449236 L71.2920533,58.1274034 C71.32144,58.4274933 71.0863467,58.6375562 70.79248,58.6375562 Z M56.1873067,57.5872417 L70.2929067,57.5872417 L70.2929067,50.3550764 L56.1873067,50.3550764 L56.1873067,57.5872417 Z" id="Shape" fill="#61616B"></path>
                <rect id="Rectangle-path" x="55.6583467" y="49.8449236" width="15.1341333" height="2.28068284"></rect>
                <path d="M70.79248,52.6357592 L55.6583467,52.6357592 C55.36448,52.6357592 55.1587733,52.3956873 55.1587733,52.1256065 L55.1587733,49.8449236 C55.1587733,49.5448338 55.3938667,49.3347709 55.6583467,49.3347709 L70.79248,49.3347709 C71.0863467,49.3347709 71.2920533,49.5748428 71.2920533,49.8449236 L71.2920533,52.1256065 C71.32144,52.3956873 71.0863467,52.6357592 70.79248,52.6357592 Z M56.1873067,51.5854447 L70.2929067,51.5854447 L70.2929067,50.3550764 L56.1873067,50.3550764 L56.1873067,51.5854447 Z" id="Shape" fill="#61616B"></path>
                <rect id="Rectangle-path" x="28.82832" y="49.8449236" width="26.8300267" height="1.59047619"></rect>
                <path d="M55.6583467,51.9755615 L28.82832,51.9755615 C28.5344533,51.9755615 28.3287467,51.7354897 28.3287467,51.4654088 L28.3287467,49.8749326 C28.3287467,49.5748428 28.56384,49.3647799 28.82832,49.3647799 L55.6583467,49.3647799 C55.9522133,49.3647799 56.15792,49.6048518 56.15792,49.8749326 L56.15792,51.4654088 C56.1873067,51.7354897 55.9522133,51.9755615 55.6583467,51.9755615 Z M29.35728,50.9252471 L55.1587733,50.9252471 L55.1587733,50.3850854 L29.35728,50.3850854 L29.35728,50.9252471 Z" id="Shape" fill="#61616B"></path>
                <rect id="Rectangle-path" x="0.675893333" y="49.8449236" width="13.40032" height="1.59047619"></rect>
                <path d="M14.1056,51.9755615 L0.70528,51.9755615 C0.411413333,51.9755615 0.205706667,51.7354897 0.205706667,51.4654088 L0.205706667,49.8749326 C0.205706667,49.5748428 0.4408,49.3647799 0.70528,49.3647799 L14.1056,49.3647799 C14.3994667,49.3647799 14.6051733,49.6048518 14.6051733,49.8749326 L14.6051733,51.4654088 C14.6051733,51.7354897 14.37008,51.9755615 14.1056,51.9755615 Z M1.20485333,50.9252471 L13.57664,50.9252471 L13.57664,50.3850854 L1.20485333,50.3850854 L1.20485333,50.9252471 Z" id="Shape" fill="#61616B"></path>
                <rect id="Rectangle-path" x="70.79248" y="49.8449236" width="13.40032" height="1.59047619"></rect>
                <path d="M84.1928,51.9755615 L70.79248,51.9755615 C70.4986133,51.9755615 70.2929067,51.7354897 70.2929067,51.4654088 L70.2929067,49.8749326 C70.2929067,49.5748428 70.528,49.3647799 70.79248,49.3647799 L84.1928,49.3647799 C84.4866667,49.3647799 84.6923733,49.6048518 84.6923733,49.8749326 L84.6923733,51.4654088 C84.72176,51.7354897 84.4866667,51.9755615 84.1928,51.9755615 Z M71.32144,50.9252471 L83.6932267,50.9252471 L83.6932267,50.3850854 L71.32144,50.3850854 L71.32144,50.9252471 Z" id="Shape" fill="#61616B"></path>
                <path d="M28.82832,57.3171608 C28.6813867,57.3171608 28.5050667,57.2571429 28.4169067,57.1070979 C28.2405867,56.8670261 28.29936,56.5369272 28.5344533,56.3868823 C28.6813867,56.2668464 32.44288,53.5060198 42.14048,51.015274 C42.40496,50.9552561 42.6988267,51.105301 42.7576,51.4053908 C42.8163733,51.6754717 42.66944,51.9755615 42.3755733,52.0355795 C32.9130667,54.4362983 29.1515733,57.1971249 29.1221867,57.2271339 C29.0634133,57.2871518 28.9458667,57.3171608 28.82832,57.3171608 Z" id="Shape" fill="#61616B"></path>
                <path d="M55.62896,57.3171608 C55.5114133,57.3171608 55.4232533,57.2871518 55.3350933,57.2271339 C55.3057067,57.1971249 51.5442133,54.4362983 42.0817067,52.0355795 C41.8172267,51.9755615 41.6409067,51.6754717 41.69968,51.4053908 C41.7584533,51.13531 42.05232,50.9552561 42.3168,51.015274 C52.0144,53.4760108 55.7758933,56.2668464 55.9228267,56.3868823 C56.15792,56.5669362 56.1873067,56.897035 56.0403733,57.1070979 C55.9228267,57.2271339 55.7758933,57.3171608 55.62896,57.3171608 Z" id="Shape" fill="#61616B"></path>
                <path d="M9.93269333,51.9455526 C9.63882667,51.9455526 9.43312,51.7054807 9.43312,51.4353998 L9.43312,33.490027 C9.43312,33.1899371 9.66821333,32.9798742 9.93269333,32.9798742 C10.22656,32.9798742 10.4322667,33.2199461 10.4322667,33.490027 L10.4322667,51.4353998 C10.4322667,51.7354897 10.1971733,51.9455526 9.93269333,51.9455526 Z" id="Shape" fill="#61616B"></path>
                <path d="M75.1417067,51.9455526 C74.84784,51.9455526 74.6421333,51.7054807 74.6421333,51.4353998 L74.6421333,33.490027 C74.6421333,33.1899371 74.8772267,32.9798742 75.1417067,32.9798742 C75.4355733,32.9798742 75.64128,33.2199461 75.64128,33.490027 L75.64128,51.4353998 C75.6706667,51.7354897 75.4355733,51.9455526 75.1417067,51.9455526 Z" id="Shape" fill="#61616B"></path>
                <g id="most" transform="translate(15.281067, 0.000000)">
                    <rect id="Rectangle-path" x="1.3224" y="14.9144654" width="9.72698667" height="34.9304582"></rect>
                    <path d="M11.0493867,50.3550764 L1.3224,50.3550764 C1.02853333,50.3550764 0.822826667,50.1150045 0.822826667,49.8449236 L0.822826667,14.9144654 C0.822826667,14.6143756 1.05792,14.4043127 1.3224,14.4043127 L11.0493867,14.4043127 C11.3432533,14.4043127 11.54896,14.6443845 11.54896,14.9144654 L11.54896,49.8449236 C11.54896,50.1450135 11.3432533,50.3550764 11.0493867,50.3550764 Z M1.85136,49.3047619 L10.5498133,49.3047619 L10.5498133,15.4546271 L1.85136,15.4546271 L1.85136,49.3047619 Z" id="Shape" fill="#61616B"></path>
                    <rect id="Rectangle-path" x="1.3224" y="14.9144654" width="1.88074667" height="34.9304582"></rect>
                    <path d="M3.20314667,50.3550764 L1.3224,50.3550764 C1.02853333,50.3550764 0.822826667,50.1150045 0.822826667,49.8449236 L0.822826667,14.9144654 C0.822826667,14.6143756 1.05792,14.4043127 1.3224,14.4043127 L3.20314667,14.4043127 C3.49701333,14.4043127 3.70272,14.6443845 3.70272,14.9144654 L3.70272,49.8449236 C3.73210667,50.1450135 3.49701333,50.3550764 3.20314667,50.3550764 Z M1.85136,49.3047619 L2.70357333,49.3047619 L2.70357333,15.4546271 L1.85136,15.4546271 L1.85136,49.3047619 Z" id="Shape" fill="#61616B"></path>
                    <rect id="Rectangle-path" x="9.16864" y="14.9144654" width="1.88074667" height="34.9304582"></rect>
                    <path d="M11.0493867,50.3550764 L9.16864,50.3550764 C8.87477333,50.3550764 8.66906667,50.1150045 8.66906667,49.8449236 L8.66906667,14.9144654 C8.66906667,14.6143756 8.90416,14.4043127 9.16864,14.4043127 L11.0493867,14.4043127 C11.3432533,14.4043127 11.54896,14.6443845 11.54896,14.9144654 L11.54896,49.8449236 C11.54896,50.1450135 11.3432533,50.3550764 11.0493867,50.3550764 Z M9.66821333,49.3047619 L10.5204267,49.3047619 L10.5204267,15.4546271 L9.66821333,15.4546271 L9.66821333,49.3047619 Z" id="Shape" fill="#61616B"></path>
                    <rect id="Rectangle-path" x="0.675893333" y="14.9144654" width="11.02" height="8.58256963"></rect>
                    <path d="M11.6958933,24.0071878 L0.675893333,24.0071878 C0.382026667,24.0071878 0.17632,23.7671159 0.17632,23.497035 L0.17632,14.9144654 C0.17632,14.6143756 0.411413333,14.4043127 0.675893333,14.4043127 L11.6958933,14.4043127 C11.98976,14.4043127 12.1954667,14.6443845 12.1954667,14.9144654 L12.1954667,23.497035 C12.2248533,23.7971249 11.98976,24.0071878 11.6958933,24.0071878 Z M1.17546667,22.9568733 L11.1669333,22.9568733 L11.1669333,15.4246181 L1.17546667,15.4246181 L1.17546667,22.9568733 Z" id="Shape" fill="#61616B"></path>
                    <rect id="Rectangle-path" x="0.675893333" y="11.5234501" width="1.88074667" height="3.39101527"></rect>
                    <path d="M2.55664,15.4546271 L0.675893333,15.4546271 C0.382026667,15.4546271 0.17632,15.2145553 0.17632,14.9444744 L0.17632,11.5534591 C0.17632,11.2533693 0.411413333,11.0433064 0.675893333,11.0433064 L2.55664,11.0433064 C2.85050667,11.0433064 3.05621333,11.2833783 3.05621333,11.5534591 L3.05621333,14.9444744 C3.05621333,15.2145553 2.82112,15.4546271 2.55664,15.4546271 Z M1.17546667,14.4043127 L2.02768,14.4043127 L2.02768,12.0636119 L1.17546667,12.0636119 L1.17546667,14.4043127 Z" id="Shape" fill="#61616B"></path>
                    <polygon id="Shape" points="2.55664 11.5234501 0.675893333 11.5234501 1.61626667 7.77232704"></polygon>
                    <path d="M2.55664,12.0636119 L0.675893333,12.0636119 C0.52896,12.0636119 0.382026667,12.0035939 0.26448,11.853549 C0.17632,11.733513 0.146933333,11.5534591 0.17632,11.4034142 L1.11669333,7.65229111 C1.17546667,7.41221923 1.38117333,7.2621743 1.61626667,7.2621743 C1.85136,7.2621743 2.05706667,7.41221923 2.11584,7.65229111 L3.05621333,11.4034142 C3.0856,11.5534591 3.05621333,11.733513 2.96805333,11.853549 C2.85050667,11.9735849 2.70357333,12.0636119 2.55664,12.0636119 Z M1.3224,11.0132974 L1.88074667,11.0132974 L1.61626667,9.90296496 L1.3224,11.0132974 Z" id="Shape" fill="#61616B"></path>
                    <polygon id="Shape" points="11.6958933 11.5234501 9.84453333 11.5234501 10.75552 7.77232704"></polygon>
                    <path d="M11.6958933,12.0636119 L9.81514667,12.0636119 C9.66821333,12.0636119 9.52128,12.0035939 9.40373333,11.853549 C9.31557333,11.733513 9.28618667,11.5534591 9.31557333,11.4034142 L10.2559467,7.65229111 C10.31472,7.41221923 10.5204267,7.2621743 10.75552,7.2621743 C10.9906133,7.2621743 11.19632,7.41221923 11.2550933,7.65229111 L12.1954667,11.4034142 C12.2248533,11.5534591 12.1954667,11.733513 12.1073067,11.853549 C12.0191467,11.9735849 11.8722133,12.0636119 11.6958933,12.0636119 Z M10.49104,11.0132974 L11.0493867,11.0132974 L10.7849067,9.90296496 L10.49104,11.0132974 Z" id="Shape" fill="#61616B"></path>
                    <rect id="Rectangle-path" x="9.84453333" y="14.9144654" width="1.88074667" height="8.58256963"></rect>
                    <path d="M11.6958933,24.0071878 L9.81514667,24.0071878 C9.52128,24.0071878 9.31557333,23.7671159 9.31557333,23.497035 L9.31557333,14.9144654 C9.31557333,14.6143756 9.55066667,14.4043127 9.81514667,14.4043127 L11.6958933,14.4043127 C11.98976,14.4043127 12.1954667,14.6443845 12.1954667,14.9144654 L12.1954667,23.497035 C12.2248533,23.7971249 11.98976,24.0071878 11.6958933,24.0071878 Z M10.3441067,22.9568733 L11.19632,22.9568733 L11.19632,15.4246181 L10.3441067,15.4246181 L10.3441067,22.9568733 Z" id="Shape"></path>
                    <rect id="Rectangle-path" x="9.84453333" y="11.5234501" width="1.88074667" height="3.39101527"></rect>
                    <path d="M11.6958933,15.4546271 L9.81514667,15.4546271 C9.52128,15.4546271 9.31557333,15.2145553 9.31557333,14.9444744 L9.31557333,11.5534591 C9.31557333,11.2533693 9.55066667,11.0433064 9.81514667,11.0433064 L11.6958933,11.0433064 C11.98976,11.0433064 12.1954667,11.2833783 12.1954667,11.5534591 L12.1954667,14.9444744 C12.2248533,15.2145553 11.98976,15.4546271 11.6958933,15.4546271 Z M10.3441067,14.4043127 L11.19632,14.4043127 L11.19632,12.0636119 L10.3441067,12.0636119 L10.3441067,14.4043127 Z" id="Shape" fill="#61616B"></path>
                    <path d="M11.0493867,30.9092543 L1.3224,30.9092543 C1.02853333,30.9092543 0.822826667,30.6691824 0.822826667,30.3991015 C0.822826667,30.1290207 1.05792,29.8889488 1.3224,29.8889488 L11.0493867,29.8889488 C11.3432533,29.8889488 11.54896,30.1290207 11.54896,30.3991015 C11.54896,30.6691824 11.3432533,30.9092543 11.0493867,30.9092543 Z" id="Shape" fill="#61616B"></path>
                    <path d="M11.0493867,41.1423181 L1.3224,41.1423181 C1.02853333,41.1423181 0.822826667,40.9022462 0.822826667,40.6321653 C0.822826667,40.3620845 1.05792,40.1220126 1.3224,40.1220126 L11.0493867,40.1220126 C11.3432533,40.1220126 11.54896,40.3620845 11.54896,40.6321653 C11.54896,40.9022462 11.3432533,41.1423181 11.0493867,41.1423181 Z" id="Shape" fill="#61616B"></path>
                    <polygon id="Shape" points="9.84453333 11.5234501 2.55664 11.5234501 6.20058667 3.90116801"></polygon>
                    <path d="M9.84453333,12.0636119 L2.55664,12.0636119 C2.38032,12.0636119 2.204,11.9735849 2.11584,11.82354 C2.02768,11.6734951 1.99829333,11.4634322 2.08645333,11.3133872 L5.7304,3.69110512 C5.81856,3.51105121 5.99488,3.39101527 6.20058667,3.39101527 C6.40629333,3.39101527 6.58261333,3.51105121 6.67077333,3.69110512 L10.31472,11.3133872 C10.40288,11.4634322 10.3734933,11.6734951 10.2853333,11.82354 C10.1677867,11.9435759 10.0208533,12.0636119 9.84453333,12.0636119 Z M3.37946667,11.0132974 L9.02170667,11.0132974 L6.20058667,5.1015274 L3.37946667,11.0132974 Z" id="Shape" fill="#61616B"></path>
                    <polygon id="Shape" points="9.84453333 11.5234501 6.20058667 9.93297394 2.55664 11.5234501 2.55664 14.9144654 9.84453333 14.9144654"></polygon>
                    <path d="M9.84453333,15.4546271 L2.55664,15.4546271 C2.26277333,15.4546271 2.05706667,15.2145553 2.05706667,14.9444744 L2.05706667,11.5534591 C2.05706667,11.3433962 2.17461333,11.1633423 2.38032,11.0733154 L6.02426667,9.48283917 C6.14181333,9.4228212 6.28874667,9.4228212 6.43568,9.48283917 L10.0796267,11.0733154 C10.2559467,11.1633423 10.40288,11.3433962 10.40288,11.5534591 L10.40288,14.9444744 C10.3441067,15.2145553 10.1090133,15.4546271 9.84453333,15.4546271 Z M3.05621333,14.4043127 L9.31557333,14.4043127 L9.31557333,11.883558 L6.1712,10.5031447 L3.02682667,11.883558 L3.02682667,14.4043127 L3.05621333,14.4043127 Z" id="Shape" fill="#61616B"></path>
                    <g id="Group" transform="translate(4.114133, 12.303684)" fill="#61616B">
                        <path d="M0.499573333,3.1509434 C0.205706667,3.1509434 0,2.91087152 0,2.64079066 L0,0.660197664 C0,0.360107817 0.235093333,0.150044924 0.499573333,0.150044924 C0.79344,0.150044924 0.999146667,0.390116801 0.999146667,0.660197664 L0.999146667,2.64079066 C0.999146667,2.91087152 0.764053333,3.1509434 0.499573333,3.1509434 Z" id="Shape"></path>
                        <path d="M3.5264,3.1509434 C3.23253333,3.1509434 3.02682667,2.91087152 3.02682667,2.64079066 L3.02682667,0.660197664 C3.02682667,0.360107817 3.26192,0.150044924 3.5264,0.150044924 C3.82026667,0.150044924 4.02597333,0.390116801 4.02597333,0.660197664 L4.02597333,2.64079066 C4.02597333,2.91087152 3.82026667,3.1509434 3.5264,3.1509434 Z" id="Shape"></path>
                    </g>
                    <g id="Group" transform="translate(4.114133, 18.005391)" fill="#61616B">
                        <path d="M0.587733333,3.00089847 C0.293866667,3.00089847 0.08816,2.76082659 0.08816,2.49074573 L0.08816,0.57017071 C0.08816,0.270080863 0.323253333,0.0600179695 0.587733333,0.0600179695 C0.8816,0.0600179695 1.08730667,0.300089847 1.08730667,0.57017071 L1.08730667,2.49074573 C1.08730667,2.79083558 0.852213333,3.00089847 0.587733333,3.00089847 Z" id="Shape"></path>
                        <path d="M3.61456,3.00089847 C3.32069333,3.00089847 3.11498667,2.76082659 3.11498667,2.49074573 L3.11498667,0.57017071 C3.11498667,0.270080863 3.35008,0.0600179695 3.61456,0.0600179695 C3.90842667,0.0600179695 4.11413333,0.300089847 4.11413333,0.57017071 L4.11413333,2.49074573 C4.14352,2.79083558 3.90842667,3.00089847 3.61456,3.00089847 Z" id="Shape"></path>
                    </g>
                    <g id="Group" transform="translate(4.408000, 26.107817)" fill="#61616B">
                        <path d="M0.764053333,2.49074573 C0.470186667,2.49074573 0.26448,2.25067385 0.26448,1.98059299 L0.26448,0.750224618 C0.26448,0.450134771 0.499573333,0.240071878 0.764053333,0.240071878 C1.05792,0.240071878 1.26362667,0.480143756 1.26362667,0.750224618 L1.26362667,1.98059299 C1.26362667,2.25067385 1.02853333,2.49074573 0.764053333,2.49074573 Z" id="Shape"></path>
                        <path d="M2.76234667,2.49074573 C2.46848,2.49074573 2.26277333,2.25067385 2.26277333,1.98059299 L2.26277333,0.750224618 C2.26277333,0.450134771 2.49786667,0.240071878 2.76234667,0.240071878 C3.02682667,0.240071878 3.26192,0.480143756 3.26192,0.750224618 L3.26192,1.98059299 C3.26192,2.25067385 3.05621333,2.49074573 2.76234667,2.49074573 Z" id="Shape"></path>
                    </g>
                    <g id="Group" transform="translate(4.408000, 34.210243)" fill="#61616B">
                        <path d="M0.764053333,2.43072776 C0.470186667,2.43072776 0.26448,2.19065588 0.26448,1.92057502 L0.26448,0.690206649 C0.26448,0.390116801 0.499573333,0.180053908 0.764053333,0.180053908 C1.05792,0.180053908 1.26362667,0.420125786 1.26362667,0.690206649 L1.26362667,1.92057502 C1.26362667,2.19065588 1.02853333,2.43072776 0.764053333,2.43072776 Z" id="Shape"></path>
                        <path d="M2.76234667,2.43072776 C2.46848,2.43072776 2.26277333,2.19065588 2.26277333,1.92057502 L2.26277333,0.690206649 C2.26277333,0.390116801 2.49786667,0.180053908 2.76234667,0.180053908 C3.02682667,0.180053908 3.26192,0.420125786 3.26192,0.690206649 L3.26192,1.92057502 C3.26192,2.19065588 3.05621333,2.43072776 2.76234667,2.43072776 Z" id="Shape"></path>
                    </g>
                    <g id="Group" transform="translate(4.408000, 44.113208)" fill="#61616B">
                        <path d="M0.764053333,2.31069182 C0.470186667,2.31069182 0.26448,2.07061995 0.26448,1.80053908 L0.26448,0.57017071 C0.26448,0.270080863 0.499573333,0.0600179695 0.764053333,0.0600179695 C1.05792,0.0600179695 1.26362667,0.300089847 1.26362667,0.57017071 L1.26362667,1.80053908 C1.26362667,2.10062893 1.02853333,2.31069182 0.764053333,2.31069182 Z" id="Shape"></path>
                        <path d="M2.76234667,2.31069182 C2.46848,2.31069182 2.26277333,2.07061995 2.26277333,1.80053908 L2.26277333,0.57017071 C2.26277333,0.270080863 2.49786667,0.0600179695 2.76234667,0.0600179695 C3.02682667,0.0600179695 3.26192,0.300089847 3.26192,0.57017071 L3.26192,1.80053908 C3.26192,2.10062893 3.05621333,2.31069182 2.76234667,2.31069182 Z" id="Shape"></path>
                    </g>
                    <path d="M1.61626667,8.28247978 C1.3224,8.28247978 1.11669333,8.04240791 1.11669333,7.77232704 L1.11669333,5.34159928 C1.11669333,5.04150943 1.35178667,4.83144654 1.61626667,4.83144654 C1.91013333,4.83144654 2.11584,5.07151842 2.11584,5.34159928 L2.11584,7.77232704 C2.11584,8.07241689 1.88074667,8.28247978 1.61626667,8.28247978 Z" id="Shape" fill="#61616B"></path>
                    <path d="M2.55664,6.84204852 L0.675893333,6.84204852 C0.382026667,6.84204852 0.17632,6.60197664 0.17632,6.33189578 C0.17632,6.03180593 0.411413333,5.82174304 0.675893333,5.82174304 L2.55664,5.82174304 C2.85050667,5.82174304 3.05621333,6.06181491 3.05621333,6.33189578 C3.05621333,6.60197664 2.82112,6.84204852 2.55664,6.84204852 Z" id="Shape" fill="#61616B"></path>
                    <path d="M10.75552,8.28247978 C10.4616533,8.28247978 10.2559467,8.04240791 10.2559467,7.77232704 L10.2559467,5.34159928 C10.2559467,5.04150943 10.49104,4.83144654 10.75552,4.83144654 C11.02,4.83144654 11.2550933,5.07151842 11.2550933,5.34159928 L11.2550933,7.77232704 C11.28448,8.07241689 11.0493867,8.28247978 10.75552,8.28247978 Z" id="Shape" fill="#61616B"></path>
                    <path d="M11.6958933,6.84204852 L9.81514667,6.84204852 C9.52128,6.84204852 9.31557333,6.60197664 9.31557333,6.33189578 C9.31557333,6.03180593 9.55066667,5.82174304 9.81514667,5.82174304 L11.6958933,5.82174304 C11.98976,5.82174304 12.1954667,6.06181491 12.1954667,6.33189578 C12.2248533,6.60197664 11.98976,6.84204852 11.6958933,6.84204852 Z" id="Shape" fill="#61616B"></path>
                    <path d="M6.20058667,4.41132075 C5.90672,4.41132075 5.70101333,4.17124888 5.70101333,3.90116801 L5.70101333,0.540161725 C5.70101333,0.240071878 5.93610667,0.0300089847 6.20058667,0.0300089847 C6.46506667,0.0300089847 6.70016,0.270080863 6.70016,0.540161725 L6.70016,3.90116801 C6.70016,4.17124888 6.46506667,4.41132075 6.20058667,4.41132075 Z" id="Shape" fill="#61616B"></path>
                    <path d="M7.17034667,2.07061995 L5.17205333,2.07061995 C4.87818667,2.07061995 4.67248,1.83054807 4.67248,1.56046721 C4.67248,1.29038634 4.90757333,1.05031447 5.17205333,1.05031447 L7.17034667,1.05031447 C7.46421333,1.05031447 7.66992,1.29038634 7.66992,1.56046721 C7.66992,1.83054807 7.46421333,2.07061995 7.17034667,2.07061995 Z" id="Shape" fill="#61616B"></path>
                    <rect id="Rectangle-path" x="0.675893333" y="14.9144654" width="1.88074667" height="8.58256963"></rect>
                    <path d="M2.55664,24.0071878 L0.675893333,24.0071878 C0.382026667,24.0071878 0.17632,23.7671159 0.17632,23.497035 L0.17632,14.9144654 C0.17632,14.6143756 0.411413333,14.4043127 0.675893333,14.4043127 L2.55664,14.4043127 C2.85050667,14.4043127 3.05621333,14.6443845 3.05621333,14.9144654 L3.05621333,23.497035 C3.05621333,23.7971249 2.82112,24.0071878 2.55664,24.0071878 Z M1.17546667,22.9568733 L2.02768,22.9568733 L2.02768,15.4246181 L1.17546667,15.4246181 L1.17546667,22.9568733 Z" id="Shape"></path>
                </g>
                <g id="Group" transform="translate(57.304000, 0.000000)">
                    <rect id="Rectangle-path" x="1.26362667" y="14.9144654" width="9.72698667" height="34.9304582"></rect>
                    <path d="M10.9906133,50.3550764 L1.26362667,50.3550764 C0.96976,50.3550764 0.764053333,50.1150045 0.764053333,49.8449236 L0.764053333,14.9144654 C0.764053333,14.6143756 0.999146667,14.4043127 1.26362667,14.4043127 L10.9906133,14.4043127 C11.28448,14.4043127 11.4901867,14.6443845 11.4901867,14.9144654 L11.4901867,49.8449236 C11.4901867,50.1450135 11.2550933,50.3550764 10.9906133,50.3550764 Z M1.7632,49.3047619 L10.4616533,49.3047619 L10.4616533,15.4546271 L1.7632,15.4546271 L1.7632,49.3047619 Z" id="Shape" fill="#61616B"></path>
                    <rect id="Rectangle-path" x="1.26362667" y="14.9144654" width="1.88074667" height="34.9304582"></rect>
                    <path d="M3.14437333,50.3550764 L1.26362667,50.3550764 C0.96976,50.3550764 0.764053333,50.1150045 0.764053333,49.8449236 L0.764053333,14.9144654 C0.764053333,14.6143756 0.999146667,14.4043127 1.26362667,14.4043127 L3.14437333,14.4043127 C3.43824,14.4043127 3.64394667,14.6443845 3.64394667,14.9144654 L3.64394667,49.8449236 C3.67333333,50.1450135 3.43824,50.3550764 3.14437333,50.3550764 Z M1.7632,49.3047619 L2.61541333,49.3047619 L2.61541333,15.4546271 L1.7632,15.4546271 L1.7632,49.3047619 Z" id="Shape" fill="#61616B"></path>
                    <rect id="Rectangle-path" x="9.10986667" y="14.9144654" width="1.88074667" height="34.9304582"></rect>
                    <path d="M10.9906133,50.3550764 L9.10986667,50.3550764 C8.816,50.3550764 8.61029333,50.1150045 8.61029333,49.8449236 L8.61029333,14.9144654 C8.61029333,14.6143756 8.84538667,14.4043127 9.10986667,14.4043127 L10.9906133,14.4043127 C11.28448,14.4043127 11.4901867,14.6443845 11.4901867,14.9144654 L11.4901867,49.8449236 C11.4901867,50.1450135 11.2550933,50.3550764 10.9906133,50.3550764 Z M9.60944,49.3047619 L10.4616533,49.3047619 L10.4616533,15.4546271 L9.60944,15.4546271 L9.60944,49.3047619 Z" id="Shape" fill="#61616B"></path>
                    <polygon id="Rectangle-path" points="0.61712 14.9144654 11.63712 14.9144654 11.63712 23.497035 6.51266846 23.497035 5.64180223 23.497035 0.61712 23.497035"></polygon>
                    <path d="M11.63712,24.0071878 L0.61712,24.0071878 C0.323253333,24.0071878 0.117546667,23.7671159 0.117546667,23.497035 L0.117546667,14.9144654 C0.117546667,14.6143756 0.35264,14.4043127 0.61712,14.4043127 L11.63712,14.4043127 C11.9309867,14.4043127 12.1366933,14.6443845 12.1366933,14.9144654 L12.1366933,23.497035 C12.1366933,23.7971249 11.9309867,24.0071878 11.63712,24.0071878 Z M1.11669333,22.9568733 L11.10816,22.9568733 L11.10816,15.4246181 L1.11669333,15.4246181 L1.11669333,22.9568733 Z" id="Shape" fill="#61616B"></path>
                    <rect id="Rectangle-path" x="0.61712" y="11.5234501" width="1.88074667" height="3.39101527"></rect>
                    <path d="M2.46848,15.4546271 L0.587733333,15.4546271 C0.293866667,15.4546271 0.08816,15.2145553 0.08816,14.9444744 L0.08816,11.5534591 C0.08816,11.2533693 0.323253333,11.0433064 0.587733333,11.0433064 L2.46848,11.0433064 C2.76234667,11.0433064 2.96805333,11.2833783 2.96805333,11.5534591 L2.96805333,14.9444744 C2.99744,15.2145553 2.76234667,15.4546271 2.46848,15.4546271 Z M1.11669333,14.4043127 L1.96890667,14.4043127 L1.96890667,12.0636119 L1.11669333,12.0636119 L1.11669333,14.4043127 Z" id="Shape" fill="#61616B"></path>
                    <polygon id="Shape" points="2.46848 11.5234501 0.61712 11.5234501 1.55749333 7.77232704"></polygon>
                    <path d="M2.46848,12.0636119 L0.587733333,12.0636119 C0.4408,12.0636119 0.293866667,12.0035939 0.17632,11.853549 C0.08816,11.733513 0.0587733333,11.5534591 0.08816,11.4034142 L1.02853333,7.65229111 C1.08730667,7.41221923 1.29301333,7.2621743 1.52810667,7.2621743 C1.7632,7.2621743 1.96890667,7.41221923 2.02768,7.65229111 L2.96805333,11.4034142 C2.99744,11.5534591 2.96805333,11.733513 2.87989333,11.853549 C2.79173333,11.9735849 2.6448,12.0636119 2.46848,12.0636119 Z M1.26362667,11.0132974 L1.82197333,11.0132974 L1.55749333,9.90296496 L1.26362667,11.0132974 Z" id="Shape" fill="#61616B"></path>
                    <polygon id="Shape" points="11.63712 11.5234501 9.75637333 11.5234501 10.6967467 7.77232704"></polygon>
                    <path d="M11.63712,12.0636119 L9.75637333,12.0636119 C9.60944,12.0636119 9.46250667,12.0035939 9.34496,11.853549 C9.2568,11.733513 9.22741333,11.5534591 9.2568,11.4034142 L10.1971733,7.65229111 C10.2559467,7.41221923 10.4616533,7.2621743 10.6967467,7.2621743 C10.93184,7.2621743 11.1375467,7.41221923 11.19632,7.65229111 L12.1366933,11.4034142 C12.16608,11.5534591 12.1366933,11.733513 12.0485333,11.853549 C11.9309867,11.9735849 11.7840533,12.0636119 11.63712,12.0636119 Z M10.4322667,11.0132974 L10.9906133,11.0132974 L10.7261333,9.90296496 L10.4322667,11.0132974 Z" id="Shape" fill="#61616B"></path>
                    <rect id="Rectangle-path" x="9.75637333" y="14.9144654" width="1.88074667" height="8.58256963"></rect>
                    <path d="M11.63712,24.0071878 L9.75637333,24.0071878 C9.46250667,24.0071878 9.2568,23.7671159 9.2568,23.497035 L9.2568,14.9144654 C9.2568,14.6143756 9.49189333,14.4043127 9.75637333,14.4043127 L11.63712,14.4043127 C11.9309867,14.4043127 12.1366933,14.6443845 12.1366933,14.9144654 L12.1366933,23.497035 C12.1366933,23.7971249 11.9309867,24.0071878 11.63712,24.0071878 Z M10.2853333,22.9568733 L11.1375467,22.9568733 L11.1375467,15.4246181 L10.2853333,15.4246181 L10.2853333,22.9568733 Z" id="Shape"></path>
                    <rect id="Rectangle-path" x="9.75637333" y="11.5234501" width="1.88074667" height="3.39101527"></rect>
                    <path d="M11.63712,15.4546271 L9.75637333,15.4546271 C9.46250667,15.4546271 9.2568,15.2145553 9.2568,14.9444744 L9.2568,11.5534591 C9.2568,11.2533693 9.49189333,11.0433064 9.75637333,11.0433064 L11.63712,11.0433064 C11.9309867,11.0433064 12.1366933,11.2833783 12.1366933,11.5534591 L12.1366933,14.9444744 C12.1366933,15.2145553 11.9309867,15.4546271 11.63712,15.4546271 Z M10.2853333,14.4043127 L11.1375467,14.4043127 L11.1375467,12.0636119 L10.2853333,12.0636119 L10.2853333,14.4043127 Z" id="Shape" fill="#61616B"></path>
                    <path d="M10.9906133,30.9092543 L1.26362667,30.9092543 C0.96976,30.9092543 0.764053333,30.6691824 0.764053333,30.3991015 C0.764053333,30.1290207 0.999146667,29.8889488 1.26362667,29.8889488 L10.9906133,29.8889488 C11.28448,29.8889488 11.4901867,30.1290207 11.4901867,30.3991015 C11.4901867,30.6691824 11.2550933,30.9092543 10.9906133,30.9092543 Z" id="Shape" fill="#61616B"></path>
                    <path d="M10.9906133,41.1423181 L1.26362667,41.1423181 C0.96976,41.1423181 0.764053333,40.9022462 0.764053333,40.6321653 C0.764053333,40.3620845 0.999146667,40.1220126 1.26362667,40.1220126 L10.9906133,40.1220126 C11.28448,40.1220126 11.4901867,40.3620845 11.4901867,40.6321653 C11.4901867,40.9022462 11.2550933,41.1423181 10.9906133,41.1423181 Z" id="Shape" fill="#61616B"></path>
                    <polygon id="Shape" points="9.75637333 11.5234501 2.46848 11.5234501 6.11242667 3.90116801"></polygon>
                    <path d="M9.75637333,12.0636119 L2.46848,12.0636119 C2.29216,12.0636119 2.11584,11.9735849 2.02768,11.82354 C1.93952,11.6734951 1.91013333,11.4634322 1.99829333,11.3133872 L5.64224,3.69110512 C5.7304,3.51105121 5.90672,3.39101527 6.11242667,3.39101527 C6.31813333,3.39101527 6.49445333,3.51105121 6.58261333,3.69110512 L10.22656,11.3133872 C10.31472,11.4634322 10.2853333,11.6734951 10.1971733,11.82354 C10.1090133,11.9435759 9.93269333,12.0636119 9.75637333,12.0636119 Z M3.29130667,11.0132974 L8.93354667,11.0132974 L6.11242667,5.1015274 L3.29130667,11.0132974 Z" id="Shape" fill="#61616B"></path>
                    <polygon id="Shape" points="9.75637333 11.5234501 6.11242667 9.93297394 2.46848 11.5234501 2.46848 14.9144654 9.75637333 14.9144654"></polygon>
                    <path d="M9.75637333,15.4546271 L2.46848,15.4546271 C2.17461333,15.4546271 1.96890667,15.2145553 1.96890667,14.9444744 L1.96890667,11.5534591 C1.96890667,11.3433962 2.08645333,11.1633423 2.29216,11.0733154 L5.93610667,9.48283917 C6.05365333,9.4228212 6.20058667,9.4228212 6.34752,9.48283917 L9.99146667,11.0733154 C10.1677867,11.1633423 10.31472,11.3433962 10.31472,11.5534591 L10.31472,14.9444744 C10.2853333,15.2145553 10.05024,15.4546271 9.75637333,15.4546271 Z M2.99744,14.4043127 L9.2568,14.4043127 L9.2568,11.883558 L6.11242667,10.5031447 L2.96805333,11.883558 L2.96805333,14.4043127 L2.99744,14.4043127 Z" id="Shape" fill="#61616B"></path>
                    <g transform="translate(3.820267, 12.303684)" fill="#61616B" id="Shape">
                        <path d="M0.70528,3.1509434 C0.411413333,3.1509434 0.205706667,2.91087152 0.205706667,2.64079066 L0.205706667,0.660197664 C0.205706667,0.360107817 0.4408,0.150044924 0.70528,0.150044924 C0.96976,0.150044924 1.20485333,0.390116801 1.20485333,0.660197664 L1.20485333,2.64079066 C1.23424,2.91087152 0.999146667,3.1509434 0.70528,3.1509434 Z"></path>
                        <path d="M3.76149333,3.1509434 C3.46762667,3.1509434 3.26192,2.91087152 3.26192,2.64079066 L3.26192,0.660197664 C3.26192,0.360107817 3.49701333,0.150044924 3.76149333,0.150044924 C4.02597333,0.150044924 4.26106667,0.390116801 4.26106667,0.660197664 L4.26106667,2.64079066 C4.26106667,2.91087152 4.02597333,3.1509434 3.76149333,3.1509434 Z"></path>
                    </g>
                    <g transform="translate(4.114133, 18.005391)" fill="#61616B" id="Shape">
                        <path d="M0.499573333,3.00089847 C0.205706667,3.00089847 0,2.76082659 0,2.49074573 L0,0.57017071 C0,0.270080863 0.235093333,0.0600179695 0.499573333,0.0600179695 C0.764053333,0.0600179695 0.999146667,0.300089847 0.999146667,0.57017071 L0.999146667,2.49074573 C1.02853333,2.79083558 0.79344,3.00089847 0.499573333,3.00089847 Z"></path>
                        <path d="M3.55578667,3.00089847 C3.26192,3.00089847 3.05621333,2.76082659 3.05621333,2.49074573 L3.05621333,0.57017071 C3.05621333,0.270080863 3.29130667,0.0600179695 3.55578667,0.0600179695 C3.82026667,0.0600179695 4.05536,0.300089847 4.05536,0.57017071 L4.05536,2.49074573 C4.05536,2.79083558 3.82026667,3.00089847 3.55578667,3.00089847 Z"></path>
                    </g>
                    <g transform="translate(4.408000, 26.107817)" fill="#61616B" id="Shape">
                        <path d="M0.675893333,2.49074573 C0.382026667,2.49074573 0.17632,2.25067385 0.17632,1.98059299 L0.17632,0.750224618 C0.17632,0.450134771 0.411413333,0.240071878 0.675893333,0.240071878 C0.940373333,0.240071878 1.17546667,0.480143756 1.17546667,0.750224618 L1.17546667,1.98059299 C1.20485333,2.25067385 0.96976,2.49074573 0.675893333,2.49074573 Z"></path>
                        <path d="M2.70357333,2.49074573 C2.40970667,2.49074573 2.204,2.25067385 2.204,1.98059299 L2.204,0.750224618 C2.204,0.450134771 2.43909333,0.240071878 2.70357333,0.240071878 C2.96805333,0.240071878 3.20314667,0.480143756 3.20314667,0.750224618 L3.20314667,1.98059299 C3.20314667,2.25067385 2.96805333,2.49074573 2.70357333,2.49074573 Z"></path>
                    </g>
                    <g transform="translate(4.408000, 34.210243)" fill="#61616B" id="Shape">
                        <path d="M0.675893333,2.43072776 C0.382026667,2.43072776 0.17632,2.19065588 0.17632,1.92057502 L0.17632,0.690206649 C0.17632,0.390116801 0.411413333,0.180053908 0.675893333,0.180053908 C0.940373333,0.180053908 1.17546667,0.420125786 1.17546667,0.690206649 L1.17546667,1.92057502 C1.20485333,2.19065588 0.96976,2.43072776 0.675893333,2.43072776 Z"></path>
                        <path d="M2.70357333,2.43072776 C2.40970667,2.43072776 2.204,2.19065588 2.204,1.92057502 L2.204,0.690206649 C2.204,0.390116801 2.43909333,0.180053908 2.70357333,0.180053908 C2.96805333,0.180053908 3.20314667,0.420125786 3.20314667,0.690206649 L3.20314667,1.92057502 C3.20314667,2.19065588 2.96805333,2.43072776 2.70357333,2.43072776 Z"></path>
                    </g>
                    <g transform="translate(4.408000, 44.113208)" fill="#61616B" id="Shape">
                        <path d="M0.675893333,2.31069182 C0.382026667,2.31069182 0.17632,2.07061995 0.17632,1.80053908 L0.17632,0.57017071 C0.17632,0.270080863 0.411413333,0.0600179695 0.675893333,0.0600179695 C0.940373333,0.0600179695 1.17546667,0.300089847 1.17546667,0.57017071 L1.17546667,1.80053908 C1.20485333,2.10062893 0.96976,2.31069182 0.675893333,2.31069182 Z"></path>
                        <path d="M2.70357333,2.31069182 C2.40970667,2.31069182 2.204,2.07061995 2.204,1.80053908 L2.204,0.57017071 C2.204,0.270080863 2.43909333,0.0600179695 2.70357333,0.0600179695 C2.96805333,0.0600179695 3.20314667,0.300089847 3.20314667,0.57017071 L3.20314667,1.80053908 C3.20314667,2.10062893 2.96805333,2.31069182 2.70357333,2.31069182 Z"></path>
                    </g>
                    <path d="M1.55749333,8.28247978 C1.26362667,8.28247978 1.05792,8.04240791 1.05792,7.77232704 L1.05792,5.34159928 C1.05792,5.04150943 1.29301333,4.83144654 1.55749333,4.83144654 C1.82197333,4.83144654 2.05706667,5.07151842 2.05706667,5.34159928 L2.05706667,7.77232704 C2.05706667,8.07241689 1.82197333,8.28247978 1.55749333,8.28247978 Z" id="Shape" fill="#61616B"></path>
                    <path d="M2.46848,6.84204852 L0.587733333,6.84204852 C0.293866667,6.84204852 0.08816,6.60197664 0.08816,6.33189578 C0.08816,6.03180593 0.323253333,5.82174304 0.587733333,5.82174304 L2.46848,5.82174304 C2.76234667,5.82174304 2.96805333,6.06181491 2.96805333,6.33189578 C2.99744,6.60197664 2.76234667,6.84204852 2.46848,6.84204852 Z" id="Shape" fill="#61616B"></path>
                    <path d="M10.6967467,8.28247978 C10.40288,8.28247978 10.1971733,8.04240791 10.1971733,7.77232704 L10.1971733,5.34159928 C10.1971733,5.04150943 10.4322667,4.83144654 10.6967467,4.83144654 C10.9906133,4.83144654 11.19632,5.07151842 11.19632,5.34159928 L11.19632,7.77232704 C11.2257067,8.07241689 10.9906133,8.28247978 10.6967467,8.28247978 Z" id="Shape" fill="#61616B"></path>
                    <path d="M11.63712,6.84204852 L9.75637333,6.84204852 C9.46250667,6.84204852 9.2568,6.60197664 9.2568,6.33189578 C9.2568,6.03180593 9.49189333,5.82174304 9.75637333,5.82174304 L11.63712,5.82174304 C11.9309867,5.82174304 12.1366933,6.06181491 12.1366933,6.33189578 C12.1366933,6.60197664 11.9309867,6.84204852 11.63712,6.84204852 Z" id="Shape" fill="#61616B"></path>
                    <path d="M6.11242667,4.41132075 C5.81856,4.41132075 5.61285333,4.17124888 5.61285333,3.90116801 L5.61285333,0.540161725 C5.61285333,0.240071878 5.84794667,0.0300089847 6.11242667,0.0300089847 C6.40629333,0.0300089847 6.612,0.270080863 6.612,0.540161725 L6.612,3.90116801 C6.64138667,4.17124888 6.40629333,4.41132075 6.11242667,4.41132075 Z" id="Shape" fill="#61616B"></path>
                    <path d="M7.11157333,2.07061995 L5.11328,2.07061995 C4.81941333,2.07061995 4.61370667,1.83054807 4.61370667,1.56046721 C4.61370667,1.29038634 4.8488,1.05031447 5.11328,1.05031447 L7.11157333,1.05031447 C7.40544,1.05031447 7.61114667,1.29038634 7.61114667,1.56046721 C7.61114667,1.83054807 7.37605333,2.07061995 7.11157333,2.07061995 Z" id="Shape" fill="#61616B"></path>
                    <rect id="Rectangle-path" x="0.61712" y="14.9144654" width="1.88074667" height="8.58256963"></rect>
                    <path d="M2.46848,24.0071878 L0.587733333,24.0071878 C0.293866667,24.0071878 0.08816,23.7671159 0.08816,23.497035 L0.08816,14.9144654 C0.08816,14.6143756 0.323253333,14.4043127 0.587733333,14.4043127 L2.46848,14.4043127 C2.76234667,14.4043127 2.96805333,14.6443845 2.96805333,14.9144654 L2.96805333,23.497035 C2.99744,23.7971249 2.76234667,24.0071878 2.46848,24.0071878 Z M1.11669333,22.9568733 L1.96890667,22.9568733 L1.96890667,15.4246181 L1.11669333,15.4246181 L1.11669333,22.9568733 Z" id="Shape"></path>
                </g>
            </g>
        </g>
    </g>
</svg>