<?xml version="1.0" encoding="UTF-8"?>
<svg width="228px" height="228px" viewBox="0 0 228 228" version="1.1" xmlns="http://www.w3.org/2000/svg" xmlns:xlink="http://www.w3.org/1999/xlink">
    <!-- Generator: Sketch 48.1 (47250) - http://www.bohemiancoding.com/sketch -->
    <title>Yao Ming</title>
    <desc>Created with Sketch.</desc>
    <defs></defs>
    <g id="Page-1" stroke="none" stroke-width="1" fill="none" fill-rule="evenodd">
        <g id="undraw_team_ih79" transform="translate(-1026.000000, 0.000000)" fill-rule="nonzero">
            <g id="Yao-Ming" transform="translate(1026.000000, 0.000000)">
                <circle id="Oval" fill="#F5F5F5" cx="114.11" cy="113.99" r="113.44"></circle>
                <path d="M114.21,227.88 C136.374335,227.914509 158.058644,221.424867 176.56,209.22 C172.38,186.38 156.47,185.07 156.47,185.07 L68.72,185.07 C68.72,185.07 53.72,186.3 49.02,207.32 C68.1040133,220.743749 90.8777379,227.926258 114.21,227.88 Z" id="Shape" fill="#6C63FF"></path>
                <circle id="Oval" fill="#333333" cx="113.01" cy="111.6" r="54.76"></circle>
                <path d="M95.34,157.21 L130.43,157.21 L130.43,185.28 C130.43,194.967075 122.577075,202.82 112.89,202.82 C108.238103,202.82 103.776735,200.972041 100.487347,197.682653 C97.197959,194.393265 95.35,189.931897 95.35,185.28 L95.35,157.21 L95.34,157.21 Z" id="Shape" fill="#000000" opacity="0.1"></path>
                <path d="M98.69,155.91 L127.08,155.91 C128.930154,155.91 130.43,157.409846 130.43,159.26 L130.43,184 C130.43,193.687075 122.577075,201.54 112.89,201.54 C108.23637,201.542653 103.772433,199.695866 100.480882,196.40619 C97.1893309,193.116514 95.3399992,188.65363 95.34,184 L95.34,159.25 C95.34,157.399846 96.8398461,155.9 98.69,155.9 L98.69,155.91 Z" id="Shape" fill="#FDB797"></path>
                <path d="M95.41,170.46 C106.718691,174.686642 119.167402,174.722118 130.5,170.56 L130.5,166.22 L95.41,166.22 L95.41,170.46 Z" id="Shape" fill="#000000" opacity="0.1"></path>
                <circle id="Oval" fill="#FDB797" cx="113.01" cy="122.52" r="50.29"></circle>
                <path d="M77.2,76.77 C77.2,76.77 98.39,119.77 158.2,94.77 L144.28,72.94 L119.61,64.08 L77.2,76.77 Z" id="Shape" fill="#000000" opacity="0.1"></path>
                <path d="M77.2,76.14 C77.2,76.14 98.39,119.14 158.2,94.14 L144.28,72.31 L119.61,63.45 L77.2,76.14 Z" id="Shape" fill="#333333"></path>
                <path d="M77.01,73.22 C78.4386125,68.796862 80.9077363,64.7811065 84.21,61.51 C94.1,51.73 110.32,49.67 118.64,38.51 C119.55416,40.1072077 119.749592,42.0167149 119.177933,43.7659911 C118.606274,45.5152674 117.320939,46.940864 115.64,47.69 C123.64,47.64 132.85,46.94 137.35,40.38 C139.62322,45.6711302 138.646139,51.798323 134.84,56.12 C141.9,56.44 149.44,61.23 149.9,68.29 C150.2,72.99 147.26,77.44 143.39,80.14 C139.52,82.84 134.85,84.07 130.25,85.09 C116.83,88.07 68.25,100.48 77.01,73.22 Z" id="Shape" fill="#333333"></path>
                <ellipse id="Oval" fill="#FDB797" cx="62.7" cy="122.47" rx="4.68" ry="8.77"></ellipse>
                <ellipse id="Oval" fill="#FDB797" cx="163.29" cy="122.47" rx="4.68" ry="8.77"></ellipse>
            </g>
        </g>
    </g>
</svg>